<svg width="175" height="176" viewBox="0 0 175 176" fill="none" xmlns="http://www.w3.org/2000/svg">
<path fill-rule="evenodd" clip-rule="evenodd" d="M112.035 155.568L108.796 140.175L98.4877 142.264L88.1798 144.353L90.128 153.749L92.0763 163.145L96.4834 162.232L100.891 161.318L100.254 158.246L99.6168 155.175L98.1778 155.473L96.7387 155.772L96.0825 152.607L95.4263 149.442L99.7984 148.586L104.171 147.73L106.1 157.034L108.029 166.339L100.709 167.906L93.3882 169.473L93.9872 172.361L94.5861 175.25L104.93 173.105L115.275 170.961L112.035 155.568ZM149.026 149.389C149.517 148.724 155.392 141.265 159.645 135.905C160.524 134.796 161.224 133.792 161.199 133.674C161.175 133.555 160.722 133.126 160.192 132.719C159.663 132.312 157.417 130.538 155.2 128.775C152.984 127.013 150.009 124.653 148.589 123.53C147.17 122.407 143.84 119.766 141.19 117.662C137.033 114.361 136.339 113.876 136.141 114.125C136.015 114.284 135.157 115.357 134.235 116.509L132.558 118.604L133.176 119.094C140.228 124.69 142.337 126.4 142.368 126.549C142.388 126.647 141.812 127.474 141.087 128.386L139.769 130.043L138.065 129.646C137.128 129.427 134.037 128.717 131.196 128.067L126.032 126.885L123.8 129.731C122.572 131.297 121.543 132.646 121.513 132.73C121.483 132.813 124.524 133.593 128.272 134.462L135.087 136.043L135.482 138.268L135.878 140.492L141.95 145.347C145.29 148.017 148.124 150.186 148.249 150.167C148.374 150.148 148.723 149.798 149.026 149.389ZM53.8843 167.445C54.4773 166.359 56.2056 163.142 57.7253 160.296C62.8917 150.621 65.0385 146.614 66.3993 144.107C67.1465 142.731 67.6949 141.506 67.618 141.386C67.5412 141.266 64.367 139.489 60.564 137.438C51.2279 132.401 51.7456 132.658 51.5518 132.971C51.1145 133.678 48.6628 138.334 48.6874 138.411C48.7029 138.46 51.0899 139.775 53.9919 141.333C56.8939 142.891 59.2585 144.241 59.2462 144.333C59.205 144.644 56.5471 149.596 56.4059 149.625C56.2795 149.651 53.246 148.049 49.4338 145.943C48.6443 145.507 47.9324 145.163 47.8518 145.18C47.7349 145.204 45.7478 148.777 44.9892 150.328C44.8375 150.638 45.3053 150.941 49.0545 152.963C51.3846 154.22 53.3052 155.316 53.3226 155.4C53.3707 155.632 50.6189 160.779 50.4161 160.837C50.3186 160.864 48.0643 159.706 45.4062 158.263C42.7484 156.82 40.3632 155.537 40.1059 155.412C39.6415 155.186 39.6285 155.202 38.3656 157.552C37.6656 158.854 36.9872 160.133 36.8578 160.393L36.6225 160.865L44.5454 165.122C48.9031 167.463 52.5445 169.388 52.6374 169.399C52.7302 169.41 53.2913 168.531 53.8843 167.445ZM144.514 139.616C143.277 138.624 142.228 137.757 142.184 137.688C142.091 137.541 147.227 130.915 147.551 130.764C147.736 130.678 152.618 134.368 152.509 134.513C150.805 136.771 147.089 141.371 146.953 141.391C146.849 141.406 145.751 140.607 144.514 139.616ZM17.6907 127.422C22.1212 125.648 28.5734 123.072 32.0288 121.698C35.4842 120.323 38.3823 119.13 38.4693 119.048C38.6343 118.891 36.702 113.812 36.3865 113.574C36.2955 113.505 34.1664 114.27 31.6549 115.274C29.1436 116.278 25.3405 117.798 23.2036 118.651C21.0668 119.504 19.2466 120.194 19.1587 120.183C19.0707 120.173 22.0093 116.911 25.689 112.936C29.3686 108.96 32.5267 105.507 32.7071 105.262L33.035 104.817L31.9434 102.143C31.3431 100.672 30.811 99.4411 30.7612 99.4081C30.6767 99.3523 26.5575 100.964 16.2492 105.087C13.9147 106.021 9.62448 107.724 6.71538 108.873C3.80626 110.021 1.38206 111.02 1.32813 111.092C1.217 111.241 3.27662 116.472 3.50614 116.624C3.58833 116.678 4.14066 116.521 4.73363 116.274C8.19361 114.835 20.6747 109.91 20.7442 109.956C20.8173 110.004 16.8869 114.308 9.22671 122.569C7.48167 124.45 6.90851 125.186 6.96756 125.468C7.01121 125.676 7.48401 126.938 8.01817 128.273C8.55254 129.608 8.99474 130.725 9.00096 130.754C9.02591 130.875 9.94617 130.522 17.6907 127.422ZM173.456 87.7606L174.899 86.06L174.197 80.2175C173.81 77.0042 173.474 74.0825 173.45 73.7248C173.408 73.1171 173.287 72.9949 171.602 71.8567L169.799 70.6388L168.513 70.7711C167.806 70.8439 161.853 71.5326 155.285 72.3016L143.343 73.6999L142.105 75.2431C141.425 76.0919 140.849 76.8021 140.827 76.8212C140.784 76.8585 142.203 89.1093 142.311 89.6307C142.347 89.8018 143.088 90.517 143.959 91.22C145.213 92.2322 145.667 92.493 146.142 92.4735C146.472 92.4598 152.096 91.8052 158.64 91.0188C165.184 90.2323 170.87 89.5602 171.276 89.5251C171.964 89.4654 172.109 89.3489 173.456 87.7606ZM157.042 84.472C152.578 84.985 148.839 85.4231 148.731 85.4453C148.536 85.4858 148.004 82.3137 147.922 80.6161L147.885 79.8663L157.438 78.737C162.693 78.1158 167.049 77.6457 167.119 77.6918C167.247 77.7763 167.885 82.4765 167.835 82.9666C167.814 83.1724 167.52 83.2634 166.482 83.3844C165.753 83.4694 161.505 83.9589 157.042 84.472ZM31.5965 75.7743C35.6123 63.6072 36.5601 60.6544 36.464 60.6089C36.0706 60.422 30.6042 58.6832 30.4867 58.7076C30.4024 58.7251 29.5691 61.0813 28.6351 63.9438C27.7009 66.8063 26.8305 69.3987 26.701 69.7051L26.4655 70.2621L24.0025 69.4407C22.6479 68.989 21.3282 68.5411 21.0701 68.4453L20.6006 68.2713L20.9391 67.2237C21.1254 66.6473 21.8031 64.5889 22.4451 62.649C23.0872 60.7093 23.5736 59.0548 23.5259 58.9724C23.4333 58.8125 17.9882 56.965 17.7535 57.0137C17.677 57.0295 16.9508 59.088 16.1397 61.5881C15.3286 64.0882 14.5991 66.1474 14.5187 66.164C14.239 66.222 8.90148 64.4066 8.76961 64.2086C8.69642 64.099 9.47547 61.4535 10.5007 58.3296C11.5258 55.2057 12.329 52.6298 12.2855 52.6055C12.0193 52.4562 6.45896 50.6883 6.34355 50.7162C6.26604 50.7351 5.87577 51.7701 5.47649 53.0159C4.63034 55.6563 3.43656 59.2948 2.24434 62.8675C0.861909 67.0096 0.628547 67.7535 0.66125 67.9112C0.693729 68.0678 1.64903 68.426 5.03509 69.5516C6.14334 69.9199 9.31805 70.9798 12.09 71.9069C14.8619 72.834 18.9422 74.1897 21.1573 74.9197C23.3724 75.6494 26.3366 76.6343 27.7446 77.1079C29.1524 77.5819 30.4254 77.9893 30.5736 78.0138C30.7572 78.0441 31.0825 77.3318 31.5965 75.7743ZM130.396 47.0948C139.502 37.3328 144.703 31.8317 144.86 31.7974C144.959 31.7758 146.46 33.1139 148.197 34.7706C149.934 36.4274 151.413 37.7728 151.485 37.7605C151.711 37.7216 155.651 33.4418 155.692 33.191C155.713 33.0598 155.325 32.5856 154.831 32.1374C153.497 30.9295 151.647 29.1895 146.489 24.2913C139.354 17.5153 138.417 16.6416 138.256 16.6176C138.174 16.6053 137.702 17.0458 137.207 17.5963C136.712 18.1469 135.77 19.1613 135.113 19.8503C134.456 20.5394 133.927 21.1439 133.937 21.1936C133.948 21.2433 135.374 22.6268 137.108 24.2681C138.841 25.9095 140.274 27.3218 140.291 27.4065C140.332 27.6013 139.107 28.9227 126.225 42.5831C124.597 44.3096 123.233 45.8115 123.193 45.9207C123.154 46.03 123.506 46.4796 123.976 46.9198C124.445 47.36 125.379 48.2616 126.051 48.9233C126.723 49.5849 127.354 50.1108 127.453 50.0918C127.552 50.0725 128.877 48.724 130.396 47.0948ZM49.7074 45.4427C50.9643 44.6622 51.9729 43.9272 51.9484 43.8092C51.9239 43.691 51.0022 42.1338 49.8999 40.3484C48.7976 38.5629 47.3401 36.1863 46.6611 35.0666L45.4263 33.0311L47.2625 31.8821L49.0987 30.7331L50.7285 31.6994C51.6248 32.2307 54.2659 33.9293 56.5972 35.4738C58.9286 37.0184 60.9583 38.2562 61.1074 38.2247C61.2568 38.1932 62.6117 37.3946 64.1184 36.45C65.6252 35.5054 66.9987 34.6577 67.1706 34.5665C67.4172 34.4355 66.2332 33.575 61.573 30.4993L55.6623 26.5982L56.0868 24.4788L56.5114 22.3595L52.4711 15.7794L48.4308 9.19943L47.6159 9.36709C47.0064 9.49252 44.7373 10.8164 38.6076 14.623C34.1011 17.4214 30.3539 19.7682 30.2806 19.8379C30.2071 19.9078 30.5315 20.5837 31.0012 21.3399C31.4709 22.0961 33.0581 24.6703 34.5281 27.0602C38.8476 34.0827 40.6597 37.0167 43.2458 41.1756C44.5873 43.333 45.9434 45.532 46.2594 46.0625C46.6611 46.7367 46.9225 47.0019 47.1279 46.9442C47.2896 46.8989 48.4503 46.2231 49.7074 45.4427ZM104.004 32.6763C104.134 31.7942 104.664 28.1609 105.181 24.602L106.122 18.1314L103.521 9.77943C102.09 5.18576 100.901 1.41521 100.879 1.40027C100.76 1.32203 95.9232 0.668674 95.7413 0.706381C95.5341 0.749347 94.7524 1.83382 88.3026 11.0262C85.5928 14.8881 85.3222 15.348 85.2006 16.2962C85.1273 16.8675 84.8799 18.6034 84.6511 20.1536C83.8216 25.7684 83.1609 30.3644 83.1233 30.7804C83.0791 31.2701 83.1257 31.2832 86.7168 31.7994C87.947 31.9762 88.9998 32.0374 89.0564 31.9354C89.1129 31.8334 89.3579 30.352 89.6006 28.6435C89.8435 26.9348 90.0835 25.4663 90.134 25.3803C90.226 25.2233 98.1679 26.3054 98.535 26.5249C98.6494 26.5933 98.5361 28.0207 98.2604 29.9812C98.0021 31.818 97.8654 33.3623 97.9568 33.4127C98.1028 33.4936 103.542 34.3267 103.705 34.293C103.74 34.2857 103.874 33.5583 104.004 32.6763ZM93.3482 20.6968C91.268 20.3988 90.7888 20.2692 90.8356 20.018C90.8675 19.847 90.9564 19.2128 91.0332 18.6085C91.1634 17.5851 91.3628 17.2419 93.9354 13.6125C95.4546 11.4692 96.7298 9.73671 96.7691 9.76249C96.8083 9.78848 97.5258 11.8065 98.3635 14.247L99.8866 18.6844L99.6769 20.131L99.4675 21.5775L97.693 21.3213C96.7171 21.1803 94.762 20.8994 93.3482 20.6968ZM40.4243 24.9897C39.5927 23.6593 38.9104 22.458 38.9083 22.3201C38.9034 22.0134 46.1602 17.3841 46.3857 17.5501C46.6313 17.7307 49.6218 22.8092 49.524 22.8798C48.6307 23.5252 42.3735 27.3684 42.1885 27.3854C42.0414 27.3988 41.3063 26.4008 40.4243 24.9897Z" fill="#E7B100"/>
</svg>
