<svg width="188" height="160" viewBox="0 0 188 160" fill="none" xmlns="http://www.w3.org/2000/svg">
<path d="M153.895 67.3062C153.895 67.3062 226.773 81.6807 157.238 153.139H135.42C130.937 153.139 51.5589 152.768 51.5589 152.768V94.2202C51.5589 94.2202 57.2818 87.1501 75.2342 79.1093C93.1851 71.0693 109.622 76.1124 109.622 76.1124L132.024 75.3898L153.895 67.3062Z" fill="#AEC8F2"/>
<path d="M153.895 67.3062C153.895 67.3062 226.773 81.6807 157.238 153.139H135.42C130.937 153.139 51.5589 152.768 51.5589 152.768V94.2202C51.5589 94.2202 57.2818 87.1501 75.2342 79.1093C93.1851 71.0693 109.622 76.1124 109.622 76.1124L132.024 75.3898L153.895 67.3062Z" stroke="black" stroke-width="0.770667" stroke-miterlimit="10"/>
<path d="M151.28 65.8252L149.421 62.1126L149.589 61.79C154.239 52.7475 157.774 40.2204 152.747 28.6666C144.253 9.1447 126.221 6.31293 108.637 16.4463C108.637 16.4463 94.9267 30.981 99.2486 47.8556C103.569 64.7302 109.812 57.5772 112.726 64.8787C115.64 72.181 114.15 73.0749 114.15 73.0749C114.15 73.0749 136.35 77.6414 140.82 74.0649L151.28 65.8252Z" fill="#FDD0CC"/>
<path d="M151.28 65.8252L149.421 62.1126L149.589 61.79C154.239 52.7475 157.774 40.2204 152.747 28.6666C144.253 9.1447 126.221 6.31292 108.637 16.4463C108.637 16.4463 94.9267 30.981 99.2486 47.8556C103.569 64.7302 109.812 57.5772 112.726 64.8787C115.64 72.181 114.15 73.0749 114.15 73.0749C114.15 73.0749 136.35 77.6414 140.82 74.0649L151.28 65.8252Z" stroke="black" stroke-width="0.577333" stroke-miterlimit="10"/>
<path d="M117.291 51.2478C116.813 51.2478 116.312 51.2091 115.79 51.1241C112.598 50.6081 111.04 49.0371 110.296 47.8102C109.482 46.4699 109.439 45.2547 109.438 45.2036C109.432 44.9929 109.597 44.8167 109.809 44.8105C110.017 44.8029 110.196 44.9708 110.202 45.1815C110.202 45.2015 110.25 46.2799 110.969 47.4461C111.934 49.0115 113.597 49.9953 115.912 50.3697C121.021 51.196 123.9 47.2188 124.661 45.9801L124.683 45.9449C124.794 45.7659 125.03 45.7114 125.21 45.8233C125.389 45.9352 125.443 46.1708 125.331 46.3504L125.312 46.3808C124.566 47.596 121.933 51.2478 117.291 51.2478Z" fill="#FF6C8F"/>
<path d="M117.291 51.2478C116.813 51.2478 116.312 51.2091 115.79 51.1241C112.598 50.6081 111.04 49.0371 110.296 47.8102C109.482 46.4699 109.439 45.2547 109.438 45.2036C109.432 44.9929 109.597 44.8167 109.809 44.8105C110.017 44.8029 110.196 44.9708 110.202 45.1815C110.202 45.2015 110.25 46.2799 110.969 47.4461C111.934 49.0115 113.597 49.9953 115.912 50.3697C121.021 51.196 123.9 47.2188 124.661 45.9801L124.683 45.9449C124.794 45.7659 125.03 45.7114 125.21 45.8233C125.389 45.9352 125.443 46.1708 125.331 46.3504L125.312 46.3808C124.566 47.596 121.933 51.2478 117.291 51.2478Z" stroke="black" stroke-width="0.164" stroke-miterlimit="10"/>
<path d="M108.446 32.1693C108.836 32.6647 108.661 33.455 108.053 33.9344C107.445 34.4146 106.635 34.4015 106.244 33.9061C105.853 33.4108 106.029 32.6205 106.637 32.1403C107.245 31.6616 108.055 31.674 108.446 32.1693Z" fill="black"/>
<g opacity="0.470001">
<path d="M100.373 28.5217C100.373 28.5217 109.344 29.1262 110.952 29.178C112.559 29.2305 109.838 37.1373 109.838 37.1373C109.838 37.1373 97.5578 37.3853 97.2082 37.0979C96.8586 36.8105 98.5298 28.7013 100.373 28.5217Z" fill="#E9ECF4"/>
</g>
<path d="M131.445 32.9643C131.835 33.4596 131.66 34.2499 131.052 34.7294C130.444 35.2095 129.634 35.1964 129.243 34.701C128.853 34.2057 129.029 33.4154 129.637 32.9352C130.245 32.4565 131.055 32.4689 131.445 32.9643Z" fill="black"/>
<g opacity="0.470001">
<path d="M123.993 29.0619C123.993 29.0619 132.965 29.6657 134.572 29.7182C136.18 29.77 133.459 37.6774 133.459 37.6774C133.459 37.6774 121.178 37.9247 120.829 37.6374C120.478 37.35 122.15 29.2415 123.993 29.0619Z" fill="#E9ECF4"/>
</g>
<path d="M145.592 34.9924C138.438 30.142 137.447 17.2909 136.852 16.9931C136.255 16.6947 121.353 19.9734 111.815 18.4833C102.278 16.9931 98.4033 14.5095 98.4054 14.2111C98.4054 14.2111 96.5159 9.93889 103.47 10.2373C110.425 10.5351 109.63 11.4297 109.63 11.4297C109.63 11.4297 96.395 6.16411 104.85 4.17723C113.306 2.19036 120.459 6.95858 120.459 6.95858C120.459 6.95858 115.69 0.740959 120.956 0.0252457C126.221 -0.691162 148.972 13.9133 152.846 25.5368L154.723 30.2774C154.723 30.2774 151.737 29.4304 149.112 30.6795C146.488 31.9278 145.592 34.9924 145.592 34.9924Z" fill="black"/>
<path d="M100.529 28.5217C100.529 28.5217 109.501 29.1262 111.108 29.178C112.716 29.2305 109.995 37.1373 109.995 37.1373C109.995 37.1373 97.7143 37.3853 97.3647 37.0979C97.0151 36.8105 98.6863 28.7013 100.529 28.5217Z" stroke="black" stroke-width="0.433333" stroke-miterlimit="10"/>
<path d="M123.993 29.0619C123.993 29.0619 132.965 29.6657 134.572 29.7182C136.18 29.77 133.459 37.6774 133.459 37.6774C133.459 37.6774 121.178 37.9247 120.829 37.6374C120.478 37.35 122.15 29.2415 123.993 29.0619Z" stroke="black" stroke-width="0.433333" stroke-miterlimit="10"/>
<path d="M112.213 35.008C111.948 35.008 105.59 34.7434 104.265 36.3994C102.941 38.0546 113.14 39.1144 113.14 39.1144" fill="#FDD0CC"/>
<path d="M112.213 35.008C111.948 35.008 105.59 34.7434 104.265 36.3994C102.941 38.0546 113.14 39.1144 113.14 39.1144" stroke="black" stroke-width="0.577333" stroke-miterlimit="10"/>
<path d="M110.949 26.8762C110.949 26.8762 113.268 27.0088 114.03 29.062" stroke="black" stroke-width="0.750667" stroke-miterlimit="10"/>
<path d="M134.334 28.2192C134.334 28.2192 136.553 28.2524 136.917 30.4382" stroke="black" stroke-width="0.750667" stroke-miterlimit="10"/>
<path d="M111.343 32.3425H121.891" stroke="black" stroke-width="0.433333" stroke-miterlimit="10"/>
<path d="M145.249 110.01C145.249 110.01 135.996 120.791 136.917 143.425C137.838 166.059 150.975 161.368 159.107 150.836C167.237 140.303 165.507 113 165.507 113" fill="#AEC8F2"/>
<path d="M145.249 110.01C145.249 110.01 135.996 120.791 136.917 143.425C137.838 166.059 150.975 161.368 159.107 150.836C167.237 140.303 165.507 113 165.507 113" stroke="black" stroke-width="0.770667" stroke-miterlimit="10"/>
<path d="M138.512 153.139H3.59296H138.512Z" fill="white"/>
<path d="M138.512 153.139H3.59296" stroke="black" stroke-width="0.750667" stroke-miterlimit="10"/>
<path d="M1 94.4744H80.0902L94.6594 146.784H131.486V152.768H16.1758L1 94.4744Z" fill="#BCBCBC"/>
<path d="M1 94.4745H80.0902L94.6594 146.784H131.486V152.768H16.1758L1 94.4745Z" stroke="black" stroke-width="0.750667" stroke-miterlimit="10"/>
<path d="M94.6593 146.784L96.1343 152.768L94.6593 146.784Z" fill="white"/>
<path d="M94.6593 146.784L96.1343 152.768" stroke="black" stroke-width="0.750667" stroke-miterlimit="10"/>
<path d="M149.829 66.4316C149.829 66.4316 140.097 74.7473 113.869 73.0913C113.869 73.0913 109.895 72.8931 109.1 74.6147C108.306 76.3369 113.803 80.5097 129.764 78.7874C145.727 77.0658 152.879 70.7072 153.807 67.6606C154.734 64.614 150.769 65.7594 149.829 66.4316Z" fill="#DCEAFF"/>
<path d="M149.829 66.4316C149.829 66.4316 140.097 74.7473 113.869 73.0913C113.869 73.0913 109.895 72.8931 109.1 74.6147C108.306 76.3369 113.803 80.5097 129.764 78.7874C145.727 77.0658 152.879 70.7072 153.807 67.6606C154.734 64.614 150.769 65.7594 149.829 66.4316Z" stroke="black" stroke-width="0.656" stroke-miterlimit="10"/>
<path d="M154.384 79.9647C151.893 79.3512 152.157 76.4062 153.126 75.5633C153.471 75.2642 154.256 75.6828 155.23 76.3101C154.925 78.4075 154.615 79.45 154.384 79.9647ZM179.706 74.6065C178.839 70.0939 175.978 69.9267 175.978 69.9267C174.677 67.2386 171.208 68.1326 171.208 68.1326C171.208 68.1326 172.161 66.7177 168.635 66.2846C165.109 65.8507 163.143 68.1326 163.143 68.1326C163.143 66.7716 164.53 58.306 165.744 55.5308C166.959 52.7557 167.999 47.6393 162.883 48.9436C158.556 50.0462 156.834 61.2462 155.991 69.144C151.602 68.0172 146.854 68.3965 145.798 74.0607C144.472 81.1764 149.515 84.9091 152.712 86.5229L147.706 109.905L164.097 112.68C164.097 112.68 167.826 98.7184 172.942 93.0811C178.059 87.4445 180.574 79.1191 179.706 74.6065Z" fill="#FDD0CC"/>
<path d="M154.6 80.0195C154.6 80.0195 154.611 80.8437 155.23 76.3097" stroke="black" stroke-width="0.656" stroke-miterlimit="10"/>
<path d="M155.991 69.1439C156.82 61.2309 158.489 50.0634 162.883 48.9435C167.999 47.6392 166.959 52.7556 165.744 55.5308C164.53 58.3059 163.143 66.7715 163.143 68.1325C163.143 68.1325 165.109 65.8506 168.635 66.2845C172.161 66.7183 171.207 68.1325 171.207 68.1325C171.207 68.1325 174.677 67.2385 175.978 69.9266C175.978 69.9266 178.839 70.0938 179.706 74.6064C180.574 79.119 178.058 87.4444 172.942 93.081C167.826 98.7183 164.096 112.681 164.096 112.681L147.706 109.905L152.712 86.5228" stroke="black" stroke-width="0.656" stroke-miterlimit="10"/>
<path d="M155.159 87.5311C155.159 87.5311 143.89 84.2931 145.798 74.0603C147.706 63.8268 161.663 70.8417 163.79 72.8272C165.917 74.812 163.339 77.4883 161.073 78.6648C158.807 79.842 154.123 74.6959 153.126 75.5636C152.129 76.4306 151.868 79.5318 154.6 80.0196" stroke="black" stroke-width="0.656" stroke-miterlimit="10"/>
<path d="M159.626 78.7524C159.584 79.8018 159.675 80.588 159.847 81.7231C159.847 81.7231 159.761 84.4146 162.883 84.1086C166.004 83.8025 166.418 79.5966 166.775 78.4257C167.132 77.2547 166.671 70.2723 171.398 68.092" stroke="black" stroke-width="0.656" stroke-miterlimit="10"/>
<path d="M163.198 67.9375C163.198 67.9375 162.297 69.0719 161.368 71.2543" stroke="black" stroke-width="0.656" stroke-miterlimit="10"/>
<path d="M175.977 69.9268C175.977 69.9268 172.812 70.2301 171.684 74.0456C170.557 77.8618 170.12 84.4919 173.577 84.1458C178.492 83.6532 178.232 74.7337 178.362 74.6066" stroke="black" stroke-width="0.656" stroke-miterlimit="10"/>
<path d="M166.517 79.5048C166.517 79.5048 164.971 84.2737 168.086 84.9701C168.852 85.1414 170.683 85.0654 171.861 83.5034" stroke="black" stroke-width="0.656" stroke-miterlimit="10"/>
<path d="M147.706 107.523C152.26 106.963 162.253 108.563 165.526 111.916C168.798 115.27 147.706 112.032 145.249 110.01C143.38 108.473 146.769 107.638 147.706 107.523Z" fill="#DCEAFF"/>
<path d="M147.706 107.523C152.26 106.963 162.253 108.563 165.526 111.916C168.798 115.27 147.706 112.032 145.249 110.01C143.38 108.473 146.769 107.638 147.706 107.523Z" stroke="black" stroke-width="0.656" stroke-miterlimit="10"/>
<path d="M149.866 46.3004C149.866 46.3004 159.205 46.1346 159.106 39.1142C159.006 32.0939 155.43 27.4244 147.482 31.3982C147.482 31.3982 145.395 32.9878 145.594 35.6704" fill="#FDD0CC"/>
<path d="M149.866 46.3004C149.866 46.3004 159.205 46.1346 159.106 39.1142C159.006 32.0938 155.43 27.4244 147.482 31.3982C147.482 31.3982 145.395 32.9878 145.594 35.6704" stroke="black" stroke-width="0.577333" stroke-miterlimit="10"/>
<path d="M151.28 40.3421C151.28 40.3421 153.42 39.8219 153.767 36.8154C154.113 33.8088 152.09 39.0703 153.073 41.4979" fill="#FFB4AE"/>
<path d="M151.28 40.3421C151.28 40.3421 153.42 39.8219 153.767 36.8154C154.113 33.8088 152.09 39.0703 153.073 41.4979" stroke="black" stroke-width="0.577333" stroke-miterlimit="10"/>
<g opacity="0.470001">
<path d="M100.637 28.9029C100.637 28.9029 99.2869 31.5012 98.9553 33.1316C98.6243 34.7613 98.7515 35.3223 99.1086 35.3223H100.102C100.102 35.3223 100.476 33.1316 101.019 31.4501C101.432 30.1706 102.166 29.039 102.166 29.039L100.637 28.9029Z" fill="#E9ECF4"/>
</g>
<g opacity="0.470001">
<path d="M124.003 29.6698C124.003 29.6698 122.654 32.268 122.322 33.8984C121.991 35.5281 122.118 36.0891 122.475 36.0891H123.469C123.469 36.0891 123.842 33.8991 124.385 32.2169C124.799 30.9375 125.532 29.8059 125.532 29.8059L124.003 29.6698Z" fill="#E9ECF4"/>
</g>
</svg>
