<svg width="65" height="88" viewBox="0 0 65 88" fill="none" xmlns="http://www.w3.org/2000/svg">
<path d="M0 32.8002V15.3911H6.95974L11.7073 23.5983H11.931L11.5581 21.1112V15.3911H17.7722V32.8002H10.8125L6.08977 24.5931H5.84121L6.21406 26.9557V32.8002H0Z" fill="white"/>
<path d="M20.754 32.8002V15.3911H26.968V32.8002H20.754Z" fill="white"/>
<path d="M29.9537 32.8002V15.3911H36.9134L41.661 23.5983H41.8847L41.5118 21.1112V15.3911H47.7259V32.8002H40.7661L36.0435 24.5931H35.7949L36.1677 26.9557V32.8002H29.9537Z" fill="white"/>
<path d="M50.7077 32.8002V15.3911H65V20.3651H56.9217V21.9817H63.2601V26.2096H56.9217V27.8262H65V32.8002H50.7077Z" fill="white"/>
<path d="M3.10827 57.359C1.03609 55.3315 0 52.8068 0 49.7848C0 46.7628 1.03609 44.238 3.10827 42.2106C5.18046 40.1832 7.91197 39.1694 11.3028 39.1694C14.6937 39.1694 17.4252 40.1832 19.4974 42.2106C21.5695 44.238 22.6056 46.7628 22.6056 49.7848C22.6056 52.8068 21.5695 55.3315 19.4974 57.359C17.4252 59.3864 14.6937 60.4001 11.3028 60.4001C7.91197 60.4001 5.18046 59.3864 3.10827 57.359ZM8.44885 46.428C7.71417 47.2505 7.34683 48.3694 7.34683 49.7848C7.34683 51.2002 7.71417 52.3191 8.44885 53.1415C9.20237 53.964 10.1537 54.3752 11.3028 54.3752C12.4519 54.3752 13.3938 53.964 14.1285 53.1415C14.882 52.3191 15.2588 51.2002 15.2588 49.7848C15.2588 48.3694 14.882 47.2505 14.1285 46.428C13.3938 45.6056 12.4519 45.1944 11.3028 45.1944C10.1537 45.1944 9.20237 45.6056 8.44885 46.428Z" fill="white"/>
<path d="M25.1587 59.8263V39.7432H33.0707L38.4678 49.211H38.7221L38.2982 46.342V39.7432H45.3625V59.8263H37.4505L32.0817 50.3586H31.7991L32.2229 53.0841V59.8263H25.1587Z" fill="white"/>
<path d="M48.7522 59.8263V39.7432H65V45.4813H55.8165V47.3461H63.022V52.2234H55.8165V54.0883H65V59.8263H48.7522Z" fill="white"/>
<path d="M61.8917 84.9588C63.9639 82.9314 65 80.4067 65 77.3847C65 74.3626 63.9639 71.8379 61.8917 69.8105C59.8195 67.783 57.088 66.7693 53.6972 66.7693C50.3063 66.7693 47.5748 67.783 45.5027 69.8105C43.4305 71.8379 42.3944 74.3626 42.3944 77.3847C42.3944 80.4067 43.4305 82.9314 45.5027 84.9588C47.5748 86.9863 50.3063 88 53.6972 88C57.088 88 59.8195 86.9863 61.8917 84.9588ZM56.5511 74.0279C57.2858 74.8504 57.6532 75.9693 57.6532 77.3847C57.6532 78.8 57.2858 79.9189 56.5511 80.7414C55.7976 81.5638 54.8463 81.9751 53.6972 81.9751C52.5481 81.9751 51.6062 81.5638 50.8715 80.7414C50.118 79.9189 49.7412 78.8 49.7412 77.3847C49.7412 75.9693 50.118 74.8504 50.8715 74.0279C51.6062 73.2055 52.5481 72.7942 53.6972 72.7942C54.8463 72.7942 55.7976 73.2055 56.5511 74.0279Z" fill="white"/>
<path d="M39.8413 87.4262V67.3431H31.9293L26.5322 76.8109H26.2779L26.7018 73.9418V67.3431H19.6375V87.4262H27.5495L32.9183 77.9585H33.2009L32.7771 80.684V87.4262H39.8413Z" fill="white"/>
<path d="M16.2478 87.4262V67.3431H1.38156e-06V73.0811H9.18354V74.946H1.97799V79.8233H9.18354V81.6882H1.38156e-06V87.4262H16.2478Z" fill="white"/>
<path d="M1.26455 7.50611C0.618485 6.8589 0.295455 6.09329 0.295455 5.20929C0.295455 4.32529 0.618485 3.56363 1.26455 2.92431C1.91061 2.27709 2.69061 1.95348 3.60455 1.95348C4.74697 1.95348 5.64121 2.3797 6.28727 3.23213C6.55515 3.61098 6.74424 4.03325 6.85455 4.49893H4.78636C4.73909 4.38054 4.65242 4.24241 4.52636 4.08456C4.26636 3.80831 3.95909 3.67018 3.60455 3.67018C3.25788 3.67018 2.96242 3.81225 2.71818 4.0964C2.48182 4.38054 2.36364 4.7515 2.36364 5.20929C2.36364 5.66707 2.48182 6.03804 2.71818 6.32218C2.96242 6.60633 3.25788 6.7484 3.60455 6.7484C4.01424 6.7484 4.32939 6.61027 4.55 6.33402C4.63667 6.23141 4.71545 6.09329 4.78636 5.91965H6.85455C6.74424 6.39322 6.55515 6.81943 6.28727 7.19829C5.66485 8.04283 4.77061 8.46509 3.60455 8.46509C2.69061 8.46509 1.91061 8.14543 1.26455 7.50611Z" fill="white"/>
<path d="M7.74645 8.28751V2.13107H9.69645V3.01902H9.81463C9.88554 2.82959 9.9919 2.66384 10.1337 2.52177C10.4568 2.18238 10.8507 2.01268 11.3155 2.01268H11.9419V3.96616H10.9374C10.5828 3.96616 10.2952 4.07666 10.0746 4.29766C9.8619 4.51077 9.75554 4.79491 9.75554 5.15009V8.28751H7.74645Z" fill="white"/>
<path d="M13.3946 7.50611C12.7407 6.86679 12.4137 6.10118 12.4137 5.20929C12.4137 4.3174 12.7407 3.55179 13.3946 2.91247C14.0486 2.27314 14.8443 1.95348 15.7819 1.95348C16.7352 1.95348 17.5349 2.27314 18.181 2.91247C18.827 3.55179 19.1501 4.3174 19.1501 5.20929V5.56447H14.4819C14.5449 5.98279 14.6867 6.3064 14.9073 6.53529C15.1358 6.75629 15.4273 6.86679 15.7819 6.86679C16.1995 6.86679 16.5146 6.76024 16.7273 6.54713C16.8219 6.46031 16.9007 6.34981 16.9637 6.21563H19.091C18.9492 6.64974 18.7364 7.02465 18.4528 7.34036C17.8304 8.09018 16.9401 8.46509 15.7819 8.46509C14.8443 8.46509 14.0486 8.14543 13.3946 7.50611ZM14.541 4.55813H17.0228C16.9519 4.27398 16.8061 4.0372 16.5855 3.84777C16.3649 3.65045 16.097 3.55179 15.7819 3.55179C15.4667 3.55179 15.1989 3.65045 14.9783 3.84777C14.7576 4.0372 14.6119 4.27398 14.541 4.55813Z" fill="white"/>
<path d="M20.651 7.57715C20.1231 6.97729 19.8592 6.188 19.8592 5.20929C19.8592 4.23057 20.1231 3.44523 20.651 2.85327C21.1789 2.25341 21.821 1.95348 22.5773 1.95348C23.0658 1.95348 23.5267 2.12318 23.9601 2.46257C24.1413 2.61254 24.291 2.77829 24.4092 2.95982H24.5273V2.13107H26.5364V8.28751H24.5273V7.45876H24.4092C24.2989 7.64818 24.1492 7.81788 23.9601 7.96784C23.5346 8.29934 23.0737 8.46509 22.5773 8.46509C21.821 8.46509 21.1789 8.16911 20.651 7.57715ZM22.2819 4.07272C22.0455 4.34107 21.9273 4.71993 21.9273 5.20929C21.9273 5.69865 22.0455 6.0775 22.2819 6.34586C22.5183 6.61422 22.8334 6.7484 23.2273 6.7484C23.6213 6.7484 23.9364 6.61422 24.1728 6.34586C24.4092 6.0775 24.5273 5.69865 24.5273 5.20929C24.5273 4.71993 24.4092 4.34107 24.1728 4.07272C23.9364 3.80436 23.6213 3.67018 23.2273 3.67018C22.8334 3.67018 22.5183 3.80436 22.2819 4.07272Z" fill="white"/>
<path d="M27.2991 3.72938V2.13107H28.0673V0.82875H30.0763V2.13107H31.6718V3.72938H30.0763V6.6892H31.79V8.28751H28.0673V3.72938H27.2991Z" fill="white"/>
<path d="M33.3609 7.50611C32.7069 6.86679 32.38 6.10118 32.38 5.20929C32.38 4.3174 32.7069 3.55179 33.3609 2.91247C34.0148 2.27314 34.8106 1.95348 35.7482 1.95348C36.7015 1.95348 37.5012 2.27314 38.1472 2.91247C38.7933 3.55179 39.1163 4.3174 39.1163 5.20929V5.56447H34.4482C34.5112 5.98279 34.653 6.3064 34.8736 6.53529C35.1021 6.75629 35.3936 6.86679 35.7482 6.86679C36.1657 6.86679 36.4809 6.76024 36.6936 6.54713C36.7882 6.46031 36.8669 6.34981 36.93 6.21563H39.0572C38.9154 6.64974 38.7027 7.02465 38.4191 7.34036C37.7966 8.09018 36.9063 8.46509 35.7482 8.46509C34.8106 8.46509 34.0148 8.14543 33.3609 7.50611ZM34.5072 4.55813H36.9891C36.9182 4.27398 36.7724 4.0372 36.5518 3.84777C36.3312 3.65045 36.0633 3.55179 35.7482 3.55179C35.433 3.55179 35.1651 3.65045 34.9445 3.84777C34.7239 4.0372 34.5782 4.27398 34.5072 4.55813Z" fill="white"/>
<path d="M40.6172 7.57715C40.0894 6.97729 39.8254 6.188 39.8254 5.20929C39.8254 4.23057 40.0894 3.44523 40.6172 2.85327C41.1451 2.25341 41.7872 1.95348 42.5436 1.95348C43.0321 1.95348 43.493 2.12318 43.9263 2.46257C44.1075 2.61254 44.2572 2.77829 44.3754 2.95982H44.4936V0H46.5027V8.28751H44.4936V7.45876H44.3754C44.2651 7.64818 44.1154 7.81788 43.9263 7.96784C43.5009 8.29934 43.04 8.46509 42.5436 8.46509C41.7872 8.46509 41.1451 8.16911 40.6172 7.57715ZM42.2481 4.07272C42.0118 4.34107 41.8936 4.71993 41.8936 5.20929C41.8936 5.69865 42.0118 6.0775 42.2481 6.34586C42.4845 6.61422 42.7997 6.7484 43.1936 6.7484C43.5875 6.7484 43.9027 6.61422 44.1391 6.34586C44.3754 6.0775 44.4936 5.69865 44.4936 5.20929C44.4936 4.71993 44.3754 4.34107 44.1391 4.07272C43.9027 3.80436 43.5875 3.67018 43.1936 3.67018C42.7997 3.67018 42.4845 3.80436 42.2481 4.07272Z" fill="white"/>
<path d="M50.9913 8.28751V0H53.0004V2.95982H53.1186C53.2289 2.77829 53.3786 2.61254 53.5677 2.46257C54.001 2.12318 54.4619 1.95348 54.9504 1.95348C55.7067 1.95348 56.3489 2.25341 56.8768 2.85327C57.4046 3.44523 57.6686 4.23057 57.6686 5.20929C57.6686 6.188 57.4046 6.97729 56.8768 7.57715C56.3489 8.16911 55.7067 8.46509 54.9504 8.46509C54.454 8.46509 53.9931 8.29934 53.5677 7.96784C53.3786 7.81788 53.2289 7.64818 53.1186 7.45876H53.0004V8.28751H50.9913ZM53.3549 4.07272C53.1186 4.34107 53.0004 4.71993 53.0004 5.20929C53.0004 5.69865 53.1186 6.0775 53.3549 6.34586C53.5913 6.61422 53.9064 6.7484 54.3004 6.7484C54.6943 6.7484 55.0095 6.61422 55.2458 6.34586C55.4822 6.0775 55.6004 5.69865 55.6004 5.20929C55.6004 4.71993 55.4822 4.34107 55.2458 4.07272C55.0095 3.80436 54.6943 3.67018 54.3004 3.67018C53.9064 3.67018 53.5913 3.80436 53.3549 4.07272Z" fill="white"/>
<path d="M58.1358 2.13107H60.2039L61.2676 6.57081H61.6221L62.8039 2.13107H64.8721L62.5085 10.537H60.4403L61.0903 8.28751H59.7312L58.1358 2.13107Z" fill="white"/>
</svg>
