<svg width="79" height="79" viewBox="0 0 79 79" fill="none" xmlns="http://www.w3.org/2000/svg">
<path d="M72.3409 48.4539L73.0848 42.6353C72.4584 42.6775 71.9409 42.8983 71.5323 43.2978C71.1329 43.6983 70.8906 44.2319 70.8054 44.8985C70.6882 45.815 70.9409 46.5248 71.5635 47.0278L70.8489 47.9809C69.8903 47.1621 69.4974 46.0768 69.6702 44.7251C69.8099 43.6327 70.2672 42.7785 71.0423 42.1625C71.8335 41.5673 72.7522 41.3366 73.7983 41.4704C74.8537 41.6053 75.6808 42.0545 76.2794 42.8179C76.8874 43.5825 77.1227 44.5018 76.9854 45.5757C76.8552 46.5941 76.3882 47.3765 75.5844 47.923C74.798 48.4811 73.8956 48.695 72.8772 48.5648C72.7013 48.5424 72.5225 48.5054 72.3409 48.4539ZM75.8467 45.4301C75.9284 44.7913 75.8165 44.2313 75.511 43.75C75.2044 43.278 74.7475 42.9514 74.1402 42.7702L73.5472 47.4085C74.1991 47.3883 74.7269 47.197 75.1308 46.8347C75.5347 46.4723 75.7733 46.0041 75.8467 45.4301Z" fill="#AEC8F2"/>
<path d="M69.1334 52.3265L73.6501 56.4372L73.174 57.664L67.6613 52.521L68.178 51.1898L75.7168 51.1122L75.2407 52.339L69.1334 52.3265Z" fill="#AEC8F2"/>
<path d="M64.5458 63.1855L67.9268 58.3919C67.3534 58.136 66.7927 58.0889 66.2447 58.2506C65.7043 58.4176 65.2404 58.7758 64.8531 59.3249C64.3205 60.08 64.2116 60.8255 64.5263 61.5614L63.4487 62.0691C62.9849 60.8968 63.1457 59.7539 63.9311 58.6404C64.5659 57.7404 65.3699 57.1996 66.3431 57.018C67.3209 56.8624 68.2407 57.0886 69.1025 57.6964C69.972 58.3097 70.4926 59.0937 70.6643 60.0486C70.8437 61.0088 70.6213 61.9313 69.9973 62.8161C69.4056 63.6551 68.6267 64.1279 67.6606 64.2346C66.7043 64.3596 65.8067 64.1263 64.9678 63.5346C64.8229 63.4323 64.6822 63.316 64.5458 63.1855ZM69.0592 62.1544C69.4304 61.6281 69.5936 61.0809 69.549 60.5126C69.499 59.9519 69.2481 59.4495 68.7962 59.0051L66.1012 62.8263C66.6866 63.1136 67.2426 63.1917 67.7691 63.0605C68.2956 62.9293 68.7257 62.6273 69.0592 62.1544Z" fill="#AEC8F2"/>
<path d="M63.649 69.6469C63.0295 70.1862 62.3617 70.4212 61.6454 70.3518C60.9352 70.2894 60.289 69.9239 59.7068 69.2551L56.8846 66.0135L57.8033 65.2138L60.5795 68.4026C60.9472 68.8249 61.3514 69.0547 61.7921 69.0918C62.2327 69.1289 62.6572 68.9697 63.0655 68.6142C63.5371 68.2036 63.7815 67.731 63.7986 67.1963C63.8219 66.6687 63.5823 66.1162 63.0797 65.539L60.6436 62.7409L61.5622 61.9411L66.1587 67.2206L65.24 68.0204L64.5781 67.2601C64.733 68.1772 64.4233 68.9727 63.649 69.6469Z" fill="#AEC8F2"/>
<path d="M55.4924 74.8257L54.913 73.8023L56.5334 72.885L54.6642 69.5834C54.494 69.2829 54.3153 69.0998 54.128 69.0342C53.9372 68.9814 53.7177 69.0199 53.4694 69.1497C53.2258 69.2877 52.9299 69.4659 52.5817 69.6845L52.0437 68.7342C52.9087 68.0836 53.6347 67.7745 54.2215 67.8069C54.8002 67.8439 55.301 68.2361 55.7241 68.9833L57.5933 72.2849L58.7994 71.602L59.3788 72.6254L58.1727 73.3083L58.959 74.6971L58.0784 75.614L57.1128 73.9083L55.4924 74.8257Z" fill="#AEC8F2"/>
<path d="M41.1183 74.6794L46.8846 73.6024C46.6522 73.0191 46.2833 72.5943 45.7778 72.3279C45.274 72.0707 44.6918 72.0038 44.0313 72.1272C43.123 72.2968 42.5249 72.7551 42.2372 73.502L41.1108 73.1142C41.5961 71.9506 42.5085 71.2438 43.848 70.9936C44.9306 70.7914 45.884 70.9646 46.708 71.5133C47.5172 72.0838 48.0186 72.8874 48.2122 73.9241C48.4076 74.97 48.2338 75.895 47.6909 76.699C47.1496 77.5122 46.3469 78.0182 45.2826 78.217C44.2734 78.4055 43.3854 78.201 42.6187 77.6036C41.8463 77.0263 41.3658 76.233 41.1773 75.2238C41.1447 75.0495 41.1251 74.868 41.1183 74.6794ZM45.0718 77.0885C45.7049 76.9702 46.2036 76.6919 46.568 76.2536C46.9232 75.817 47.0939 75.2819 47.08 74.6483L42.4835 75.5068C42.7026 76.121 43.0466 76.5648 43.5154 76.838C43.9842 77.1112 44.503 77.1947 45.0718 77.0885Z" fill="#AEC8F2"/>
<path d="M36.2827 72.8105L33.7588 78.3718L32.445 78.2957L35.6452 71.4694L37.0708 71.552L39.4612 78.7022L38.1474 78.6261L36.2827 72.8105Z" fill="#AEC8F2"/>
<path d="M24.5637 71.7724L30.1634 73.5198C30.231 72.8957 30.1039 72.3476 29.7819 71.8755C29.4571 71.4124 28.974 71.0808 28.3325 70.8806C27.4504 70.6053 26.7074 70.7303 26.1035 71.2556L25.2897 70.3857C26.2632 69.5847 27.4004 69.3871 28.7012 69.7931C29.7525 70.1211 30.5139 70.7205 30.9852 71.5911C31.4332 72.474 31.5002 73.4188 31.186 74.4256C30.869 75.4413 30.2824 76.1773 29.4263 76.6337C28.5674 77.0989 27.6211 77.1703 26.5876 76.8477C25.6076 76.5419 24.9186 75.9456 24.5207 75.0588C24.1084 74.187 24.0551 73.2611 24.3609 72.2811C24.4138 72.1118 24.4814 71.9422 24.5637 71.7724ZM26.9296 75.7519C27.5444 75.9437 28.1154 75.9312 28.6425 75.7144C29.1608 75.4949 29.5621 75.1019 29.8464 74.5355L25.3827 73.1426C25.2889 73.7879 25.3851 74.341 25.6715 74.8019C25.9579 75.2628 26.3772 75.5795 26.9296 75.7519Z" fill="#AEC8F2"/>
<path d="M18.1485 72.8825C17.4459 72.457 17.0185 71.8926 16.8662 71.1893C16.7091 70.4939 16.8602 69.767 17.3196 69.0086L19.5463 65.3325L20.5881 65.9635L18.3976 69.5798C18.1075 70.0588 18.0119 70.5138 18.111 70.9448C18.21 71.3758 18.491 71.7315 18.954 72.012C19.4889 72.3359 20.0136 72.4246 20.528 72.2779C21.0376 72.1392 21.4906 71.7425 21.8871 71.0879L23.8093 67.9146L24.8511 68.5457L21.2244 74.533L20.1826 73.9019L20.7049 73.0397C19.8787 73.4669 19.0266 73.4145 18.1485 72.8825Z" fill="#AEC8F2"/>
<path d="M10.7482 66.6982L11.5459 65.8341L12.9141 67.0971L15.4875 64.3092C15.7217 64.0555 15.8415 63.8294 15.8468 63.6311C15.8389 63.4333 15.7352 63.236 15.5358 63.0392C15.3301 62.8493 15.07 62.6219 14.7556 62.357L15.4962 61.5546C16.3799 62.1798 16.8958 62.7767 17.0441 63.3454C17.1854 63.9078 16.9649 64.5045 16.3825 65.1354L13.8091 67.9232L14.8275 68.8633L14.0298 69.7275L13.0114 68.7873L11.9289 69.9601L10.787 69.4014L12.1164 67.9612L10.7482 66.6982Z" fill="#AEC8F2"/>
<path d="M6.48415 52.9689L9.27951 58.126C9.76325 57.7258 10.0543 57.2442 10.1526 56.6814C10.2427 56.1229 10.1277 55.5483 9.80742 54.9575C9.3671 54.1452 8.74737 53.7167 7.94823 53.6722L7.97148 52.4812C9.22783 52.5858 10.1807 53.2371 10.83 54.4351C11.3549 55.4033 11.4827 56.3638 11.2135 57.3166C10.919 58.2618 10.3082 58.9857 9.38094 59.4883C8.44552 59.9953 7.51187 60.1139 6.57999 59.844C5.6399 59.5786 4.91189 58.97 4.39596 58.0181C3.90672 57.1155 3.82867 56.2077 4.1618 55.2946C4.47408 54.3822 5.08152 53.6814 5.98412 53.1921C6.14002 53.1076 6.3067 53.0332 6.48415 52.9689ZM5.40523 57.4711C5.71212 58.0373 6.13009 58.4264 6.65914 58.6386C7.18375 58.8426 7.7454 58.8408 8.34409 58.633L6.11581 54.5221C5.59856 54.9192 5.28187 55.3828 5.16576 55.9129C5.04965 56.443 5.12948 56.9623 5.40523 57.4711Z" fill="#AEC8F2"/>
<path d="M6.82933 47.9547L0.762361 47.2544L0.432634 45.9804L7.9109 46.9372L8.26869 48.3197L2.19352 52.7842L1.86379 51.5102L6.82933 47.9547Z" fill="#AEC8F2"/>
<path d="M4.20212 36.5163L4.27005 42.3819C4.88461 42.2535 5.36661 41.9632 5.71606 41.5111C6.05619 41.0592 6.22236 40.4972 6.21458 39.8252C6.20388 38.9013 5.85545 38.2333 5.1693 37.8212L5.74526 36.7785C6.80786 37.4569 7.34704 38.4774 7.36282 39.8399C7.37558 40.9412 7.04075 41.8505 6.35834 42.5678C5.65706 43.2666 4.77911 43.6221 3.72452 43.6343C2.66059 43.6467 1.77937 43.3162 1.08086 42.6429C0.373017 41.9697 0.0128269 41.0918 0.000289491 40.0092C-0.0115994 38.9826 0.342703 38.1431 1.0632 37.4907C1.76492 36.8292 2.62908 36.4925 3.65567 36.4807C3.83299 36.4786 4.01514 36.4905 4.20212 36.5163ZM1.14821 39.9959C1.15567 40.6399 1.34393 41.1791 1.71298 41.6135C2.08193 42.0386 2.57964 42.2988 3.20612 42.3943L3.15197 37.7186C2.50921 37.8287 2.01288 38.0911 1.66299 38.5059C1.3131 38.9206 1.14151 39.4173 1.14821 39.9959Z" fill="#AEC8F2"/>
<path d="M1.173 30.6068C1.36363 29.8079 1.77056 29.2285 2.39376 28.8687C3.00789 28.5067 3.74618 28.4286 4.60864 28.6344L8.78926 29.632L8.50656 30.8167L4.39402 29.8354C3.84931 29.7054 3.38688 29.7534 3.00673 29.9793C2.62657 30.2052 2.37367 30.5815 2.24802 31.108C2.10288 31.7163 2.17871 32.2429 2.47552 32.688C2.76325 33.1308 3.27933 33.4411 4.02376 33.6187L7.63244 34.4799L7.34974 35.6646L0.540905 34.0398L0.82361 32.8551L1.80408 33.0891C1.14506 32.4329 0.934701 31.6054 1.173 30.6068Z" fill="#AEC8F2"/>
<path d="M4.8244 21.5958L5.88968 22.0939L5.10095 23.7806L8.53775 25.3877C8.85057 25.534 9.10229 25.5796 9.29292 25.5245C9.47904 25.457 9.63563 25.2984 9.76269 25.0487C9.8813 24.795 10.0191 24.4783 10.1762 24.0984L11.1654 24.5609C10.8375 25.5925 10.4251 26.2651 9.92811 26.5788C9.43507 26.884 8.79964 26.8548 8.02181 26.491L4.58501 24.8839L3.99791 26.1394L2.93263 25.6413L3.51973 24.3858L2.07399 23.7097L2.2602 22.4522L4.03567 23.2825L4.8244 21.5958Z" fill="#AEC8F2"/>
<path d="M16.52 13.4425L12.4635 17.6798C12.9923 18.0182 13.5398 18.1482 14.1058 18.0698C14.665 17.985 15.177 17.6999 15.6417 17.2145C16.2807 16.547 16.4993 15.826 16.2976 15.0515L17.4387 14.7097C17.723 15.938 17.3939 17.0442 16.4516 18.0286C15.69 18.8241 14.8145 19.2393 13.8251 19.2741C12.8351 19.2824 11.9591 18.922 11.1973 18.1926C10.4287 17.4569 10.0306 16.6041 10.0028 15.6343C9.96833 14.6581 10.3254 13.7789 11.0741 12.9969C11.7841 12.2552 12.6247 11.9036 13.5959 11.9418C14.5601 11.9604 15.413 12.3246 16.1546 13.0346C16.2827 13.1572 16.4045 13.2932 16.52 13.4425ZM11.9034 13.7907C11.458 14.2559 11.2152 14.7728 11.1747 15.3414C11.1408 15.9032 11.3142 16.4375 11.6949 16.9441L14.9285 13.5663C14.3923 13.1952 13.8541 13.0353 13.3139 13.0866C12.7737 13.138 12.3035 13.3727 11.9034 13.7907Z" fill="#AEC8F2"/>
<path d="M21.3357 12.247L20.1313 6.25964L21.2416 5.55319L22.637 12.9622L21.4322 13.7287L15.3121 9.32594L16.4224 8.61949L21.3357 12.247Z" fill="#AEC8F2"/>
<path d="M31.5119 6.1717L25.9462 8.0245C26.2559 8.57064 26.6793 8.94122 27.2163 9.13623C27.7505 9.32238 28.3364 9.30933 28.974 9.09707C29.8506 8.80522 30.3806 8.26974 30.5639 7.49063L31.7326 7.7213C31.4104 8.94013 30.6029 9.76474 29.31 10.1951C28.265 10.543 27.297 10.5013 26.4058 10.07C25.5264 9.61518 24.9202 8.8874 24.5871 7.88673C24.251 6.8772 24.2971 5.93717 24.7254 5.06666C25.1508 4.18729 25.8771 3.57663 26.9043 3.23466C27.8784 2.91038 28.786 2.9919 29.627 3.47923C30.4709 3.94589 31.055 4.66627 31.3793 5.64038C31.4353 5.80864 31.4795 5.98574 31.5119 6.1717ZM27.2669 4.32389C26.6559 4.5273 26.1998 4.87097 25.8985 5.35489C25.6061 5.83586 25.51 6.38922 25.6101 7.01497L30.0467 5.53803C29.7459 4.95943 29.3447 4.56673 28.843 4.35993C28.3413 4.15313 27.816 4.14112 27.2669 4.32389Z" fill="#AEC8F2"/>
<path d="M36.1161 1.49117C36.935 1.42787 37.6111 1.63771 38.1446 2.1207C38.6774 2.59438 38.9779 3.27324 39.0463 4.15727L39.3775 8.44248L38.1631 8.53636L37.8373 4.32093C37.7941 3.7626 37.6068 3.3371 37.2752 3.04445C36.9437 2.7518 36.5081 2.62633 35.9683 2.66805C35.3449 2.71625 34.8668 2.94979 34.5341 3.36868C34.2006 3.77826 34.0634 4.36458 34.1224 5.12764L34.4083 8.8266L33.194 8.92047L32.6545 1.94129L33.8688 1.84742L33.9465 2.85242C34.3693 2.02404 35.0925 1.57029 36.1161 1.49117Z" fill="#AEC8F2"/>
<path d="M45.7923 2.17415L45.6477 3.34122L43.7998 3.11219L43.3332 6.87738C43.2907 7.22009 43.3251 7.47358 43.4364 7.63785C43.5581 7.79401 43.7573 7.89394 44.0341 7.93764C44.3119 7.97208 44.6558 8.0053 45.0656 8.03729L44.9313 9.12099C43.8489 9.12791 43.0818 8.94348 42.6299 8.56771C42.1873 8.19309 42.0188 7.5797 42.1244 6.72756L42.5911 2.96237L41.2156 2.79188L41.3603 1.62481L42.7357 1.7953L42.9321 0.211417L44.1856 0L43.9445 1.94512L45.7923 2.17415Z" fill="#AEC8F2"/>
<path d="M57.3893 10.897L52.1227 8.31394C51.9604 8.92043 52.0022 9.48153 52.2483 9.99724C52.4984 10.5046 52.9252 10.9062 53.5285 11.2021C54.3581 11.609 55.1115 11.599 55.7886 11.1722L56.4598 12.1564C55.3753 12.7991 54.2213 12.8205 52.9979 12.2205C52.0091 11.7355 51.3483 11.0268 51.0156 10.0943C50.7078 9.15335 50.7861 8.2094 51.2506 7.26249C51.7191 6.3072 52.4113 5.66951 53.3271 5.34943C54.2471 5.02098 55.1931 5.09512 56.1651 5.57187C57.0869 6.02395 57.6766 6.7186 57.9342 7.6558C58.2085 8.58035 58.1196 9.50351 57.6675 10.4253C57.5894 10.5845 57.4967 10.7417 57.3893 10.897ZM55.6596 6.60257C55.0814 6.31899 54.5153 6.24402 53.9611 6.37767C53.4154 6.51542 52.9587 6.84242 52.5912 7.35865L56.7894 9.4177C56.9808 8.79429 56.9703 8.23295 56.7577 7.73369C56.5452 7.23442 56.1792 6.85739 55.6596 6.60257Z" fill="#AEC8F2"/>
<path d="M60.0274 15.1785L65.3738 12.2266L66.3819 13.0725L59.7374 16.6349L58.6435 15.7169L60.9983 8.55486L62.0064 9.40079L60.0274 15.1785Z" fill="#AEC8F2"/>
<path d="M68.8053 22.9226L65.3373 18.1915C64.9122 18.6536 64.6891 19.1701 64.6679 19.7411C64.6542 20.3066 64.846 20.8603 65.2433 21.4023C65.7896 22.1475 66.4616 22.4881 67.2594 22.424L67.3977 23.6072C66.1388 23.6737 65.1065 23.1574 64.3009 22.0584C63.6498 21.1701 63.3931 20.2358 63.5307 19.2554C63.6945 18.279 64.2017 17.479 65.0523 16.8555C65.9105 16.2265 66.8195 15.9826 67.7793 16.1237C68.7467 16.2594 69.5504 16.7639 70.1905 17.6371C70.7974 18.4651 70.9977 19.354 70.7913 20.3038C70.6054 21.2501 70.0985 22.0267 69.2705 22.6337C69.1274 22.7385 68.9724 22.8348 68.8053 22.9226ZM69.2646 18.3158C68.8838 17.7964 68.417 17.4674 67.8641 17.3288C67.3167 17.1977 66.7605 17.2756 66.1954 17.5625L68.9599 21.3338C69.4186 20.8703 69.6696 20.368 69.7128 19.8272C69.7561 19.2863 69.6067 18.7825 69.2646 18.3158Z" fill="#AEC8F2"/>
<path d="M74.6743 25.8758C74.9857 26.6358 74.9934 27.3438 74.6974 27.9997C74.41 28.6521 73.856 29.1464 73.0356 29.4826L69.0586 31.1124L68.5967 29.9854L72.5089 28.3821C73.0271 28.1697 73.3746 27.8609 73.5515 27.4556C73.7283 27.0502 73.7141 26.5971 73.5088 26.0962C73.2717 25.5176 72.9027 25.1342 72.402 24.946C71.9099 24.7543 71.3097 24.8036 70.6015 25.0938L67.1686 26.5006L66.7068 25.3736L73.184 22.7192L73.6458 23.8462L72.7131 24.2285C73.6312 24.3767 74.285 24.9258 74.6743 25.8758Z" fill="#AEC8F2"/>
<path d="M76.9567 35.2171L75.8016 35.4374L75.4527 33.6084L71.7259 34.3193C71.3867 34.384 71.1559 34.4945 71.0337 34.6508C70.9224 34.8146 70.8885 35.0348 70.9317 35.3116C70.9842 35.5867 71.0581 35.9241 71.1534 36.324L70.0807 36.5286C69.7421 35.5005 69.6823 34.7138 69.9013 34.1684C70.1221 33.6322 70.6542 33.2837 71.4977 33.1228L75.2245 32.412L74.9648 31.0505L76.12 30.8302L76.3797 32.1917L77.9474 31.8926L78.5332 33.0209L76.6079 33.3881L76.9567 35.2171Z" fill="#AEC8F2"/>
</svg>
