<svg width="510" height="62" viewBox="0 0 510 62" fill="none" xmlns="http://www.w3.org/2000/svg">
<path d="M29.0092 22.1553C32.0089 22.0799 34.4698 22.956 36.3005 24.8798C38.2248 26.8013 39.1321 29.3112 39.2146 32.5922L39.6341 49.2785L36.0718 49.3681L35.6523 32.6818C35.5934 30.3382 34.9862 28.5712 33.7369 27.3832C32.4876 26.1952 30.8775 25.579 29.0026 25.6262C26.7528 25.6827 24.9905 26.4774 23.7158 28.0103C22.3474 29.5455 21.7477 31.8119 21.8278 34.9991L22.2002 49.8106L18.6379 49.9001L18.2185 33.2138C18.1596 30.8702 17.5523 29.1033 16.3944 27.8191C15.2389 26.6288 13.7225 26.0103 11.7539 26.0598C9.59778 26.114 7.83552 26.9086 6.37333 28.4462C4.91115 29.9838 4.21773 32.2525 4.29786 35.4398L4.67019 50.2512L1.10796 50.3408L0.436348 23.624L3.99858 23.5344L4.09755 27.4716C5.99075 24.4224 8.67161 22.8541 12.1401 22.767C15.9836 22.6703 18.7422 24.1956 20.4183 27.4366C22.2997 23.9186 25.1657 22.2519 29.0092 22.1553Z" fill="white"/>
<path d="M68.797 45.1684C66.1468 47.9553 62.8051 49.3526 58.9616 49.4492C55.0244 49.5482 51.7104 48.3182 48.9235 45.668C46.1366 43.0178 44.648 39.7722 44.549 35.8349C44.45 31.8977 45.7713 28.4877 48.4239 25.7945C51.0741 23.0076 54.3222 21.6127 58.2594 21.5137C62.1966 21.4147 65.5106 22.6447 68.2975 25.2949C71.0843 27.9451 72.573 31.1908 72.672 35.128C72.7709 39.0652 71.4473 42.3815 68.797 45.1684ZM51.2972 43.0757C53.4114 45.0862 55.8746 46.0561 58.8744 45.9807C61.8742 45.9053 64.2856 44.8129 66.2961 42.6987C68.3066 40.5845 69.1804 38.0299 69.1074 35.1238C69.0319 32.124 67.9395 29.7126 65.9191 27.6998C63.8049 25.6893 61.3416 24.7193 58.3418 24.7947C55.3421 24.8701 52.9307 25.9626 50.9202 28.0768C48.9097 30.191 48.0358 32.7456 48.1089 35.6517C48.1843 38.6515 49.2791 41.1566 51.2972 43.0757Z" fill="white"/>
<path d="M81.82 25.8934C83.3311 22.5724 86.1034 20.908 90.1343 20.8067L90.2191 24.1814C87.7818 24.2427 85.832 25.0421 84.2738 26.4883C82.7155 27.9345 81.9284 30.2056 82.0061 33.2991L82.3785 48.1105L78.9099 48.1977L78.2383 21.4809L81.8006 21.3913L81.9137 25.8911L81.82 25.8934Z" fill="white"/>
<path d="M105.691 20.2278C109.628 20.1288 112.851 21.4549 115.359 24.2059C117.867 26.9569 119.168 30.2073 119.265 34.0507C119.274 34.4257 119.288 34.9882 119.213 35.7405L95.7775 36.3296C96.2208 39.0388 97.3999 41.1666 99.4086 42.7107C101.417 44.2549 103.78 44.9459 106.686 44.8728C108.748 44.821 110.426 44.4036 111.905 43.5222C113.383 42.6408 114.48 41.4876 115.197 40.1564L118.335 41.8597C117.164 43.7652 115.608 45.3052 113.668 46.4796C111.727 47.654 109.398 48.2754 106.773 48.3413C102.555 48.4474 99.1467 47.2198 96.4559 44.661C93.7652 42.1021 92.3679 38.7604 92.2666 34.7294C92.1653 30.6985 93.3952 27.3845 95.9517 24.6C98.3183 21.7264 101.566 20.3315 105.691 20.2278ZM105.778 23.6963C102.966 23.767 100.737 24.6673 98.9048 26.4018C97.0724 28.1363 96.0017 30.3206 95.6927 32.9549L115.66 32.4529C115.214 29.6501 114.129 27.5199 112.214 25.9734C110.39 24.3308 108.216 23.6351 105.778 23.6963Z" fill="white"/>
<path d="M152.195 23.0921L144.508 23.2853L144.916 39.5029C144.954 41.0028 145.261 42.0269 145.837 42.5753C146.416 43.2173 147.267 43.4773 148.392 43.4491C149.517 43.4208 150.923 43.3854 152.702 43.2469L152.78 46.3404C149.044 46.9971 146.225 46.7866 144.322 45.7088C142.418 44.631 141.429 42.5923 141.351 39.4987L140.944 23.2812L135.319 23.4226L135.234 20.0478L140.859 19.9064L140.699 13.5319L144.235 12.4112L144.423 19.9106L152.11 19.7174L152.195 23.0921Z" fill="white"/>
<path d="M170.468 18.5995C173.749 18.517 176.306 19.4846 178.23 21.4061C180.154 23.3276 181.16 26.0225 181.243 29.3036L181.655 45.7086L178.093 45.7982L177.68 29.3931C177.621 27.0495 176.918 25.1911 175.666 23.9094C174.415 22.6276 172.523 22.0185 170.274 22.0751C167.742 22.1387 165.608 23.0366 164.054 24.6703C162.5 26.304 161.72 28.8563 161.805 32.231L162.156 46.1988L158.594 46.2883L157.654 8.88477L161.216 8.79522L161.588 23.6066C163.477 20.3699 166.437 18.7009 170.468 18.5995Z" fill="white"/>
<path d="M210.794 18.242L214.356 18.1524L215.027 44.8692L211.465 44.9588L211.333 39.7091C208.995 43.7076 205.388 45.7682 200.701 45.886C196.858 45.9826 193.637 44.7503 190.851 42.1001C188.064 39.4498 186.669 36.2018 186.57 32.2646C186.471 28.3274 187.701 25.0134 190.351 22.2265C193.001 19.4397 196.155 18.0471 199.999 17.9505C204.78 17.8303 208.392 19.7094 210.928 23.5853L210.794 18.242ZM193.318 39.5054C195.432 41.5159 197.895 42.4858 200.895 42.4104C203.895 42.335 206.306 41.2426 208.317 39.1284C210.327 37.0142 211.201 34.4595 211.128 31.5535C211.053 28.5537 209.96 26.1423 207.94 24.1295C205.826 22.119 203.362 21.149 200.363 21.2244C197.363 21.2998 194.951 22.3923 192.941 24.5065C190.93 26.6207 190.057 29.1753 190.13 32.0814C190.111 35.0835 191.206 37.5886 193.318 39.5054Z" fill="white"/>
<path d="M234.307 16.9948C237.588 16.9123 240.145 17.8799 242.069 19.8013C243.994 21.7228 244.999 24.4178 245.082 27.6988L245.494 44.1039L241.932 44.1934L241.52 27.7884C241.461 25.4448 240.757 23.5864 239.506 22.3046C238.254 21.0228 236.363 20.4138 234.113 20.4704C231.582 20.534 229.447 21.4318 227.893 23.0655C226.34 24.6992 225.56 27.2515 225.644 30.6263L225.996 44.594L222.433 44.6836L221.762 17.9668L225.324 17.8772L225.428 22.0019C227.316 18.7651 230.276 17.0961 234.307 16.9948Z" fill="white"/>
<path d="M278.133 43.9395C274.102 44.0408 270.695 42.8132 268.001 40.1606C265.308 37.508 263.82 34.2624 263.721 30.3252C263.622 26.388 264.849 22.9802 267.502 20.2871C270.152 17.5002 273.4 16.1053 277.431 16.0039C280.056 15.938 282.416 16.5353 284.603 17.6997C286.789 18.8642 288.334 20.6076 289.323 22.6464L286.46 24.4068C285.67 22.832 284.512 21.5479 282.895 20.6506C281.277 19.7532 279.484 19.3292 277.516 19.3787C274.516 19.4541 272.105 20.5466 270.094 22.6608C268.084 24.775 267.21 27.3296 267.283 30.2356C267.358 33.2354 268.451 35.6468 270.471 37.6597C272.585 39.6702 275.049 40.6401 278.048 40.5647C280.017 40.5152 281.786 40.0017 283.356 39.0242C284.927 38.0467 286.112 36.7037 286.916 35.0889L289.864 36.7032C288.794 38.8875 287.242 40.615 285.117 41.8879C283.085 43.1584 280.664 43.8758 278.133 43.9395Z" fill="white"/>
<path d="M317.216 38.9233C314.566 41.7102 311.224 43.1075 307.381 43.2041C303.444 43.3031 300.13 42.0731 297.343 39.4229C294.556 36.7727 293.067 33.527 292.968 29.5898C292.869 25.6526 294.191 22.2425 296.843 19.5494C299.493 16.7625 302.835 15.3652 306.679 15.2686C310.616 15.1696 313.93 16.3996 316.717 19.0498C319.504 21.7 320.992 24.9457 321.091 28.8829C321.19 32.8201 319.867 36.1364 317.216 38.9233ZM299.716 36.8306C301.831 38.8411 304.294 39.811 307.294 39.7356C310.293 39.6602 312.705 38.5678 314.715 36.4536C316.726 34.3394 317.6 31.7847 317.527 28.8787C317.451 25.8789 316.359 23.4675 314.338 21.4547C312.224 19.4441 309.761 18.4742 306.761 18.5496C303.761 18.625 301.35 19.7175 299.339 21.8317C297.329 23.9459 296.455 26.5005 296.528 29.4066C296.51 32.4087 297.605 34.9138 299.716 36.8306Z" fill="white"/>
<path d="M357.689 14.5487L361.345 14.4568L353.767 41.381L349.924 41.4776L342.445 20.0911L336.05 41.8264L332.207 41.923L323.286 15.4136L326.941 15.3217L334.062 37.3739L340.534 14.98L344.096 14.8904L351.686 36.9308L357.689 14.5487Z" fill="white"/>
<path d="M388.555 37.1303C385.905 39.9172 382.563 41.3145 378.72 41.4111C374.782 41.5101 371.468 40.2801 368.681 37.6299C365.895 34.9797 364.406 31.7341 364.307 27.7969C364.208 23.8596 365.529 20.4496 368.182 17.7564C370.832 14.9695 374.174 13.5722 378.017 13.4756C381.955 13.3766 385.269 14.6066 388.055 17.2568C390.842 19.907 392.331 23.1527 392.43 27.0899C392.529 31.0271 391.205 34.3435 388.555 37.1303ZM371.055 35.0376C373.169 37.0481 375.633 38.018 378.632 37.9426C381.632 37.8672 384.044 36.7748 386.054 34.6606C388.065 32.5464 388.938 29.9918 388.865 27.0857C388.79 24.0859 387.697 21.6745 385.677 19.6617C383.563 17.6512 381.1 16.6812 378.1 16.7566C375.1 16.832 372.689 17.9245 370.678 20.0387C368.668 22.1529 367.794 24.7076 367.867 27.6136C367.942 30.6134 368.943 33.1209 371.055 35.0376Z" fill="white"/>
<path d="M401.578 17.8554C403.089 14.5343 405.955 12.8677 409.893 12.7687L409.977 16.1434C407.54 16.2047 405.59 17.0041 404.032 18.4503C402.474 19.8965 401.687 22.1676 401.764 25.2611L402.137 40.0725L398.574 40.1621L397.903 13.4453L401.465 13.3557L401.578 17.8554Z" fill="white"/>
<path d="M437.011 39.2898L432.324 39.4076L418.69 26.8994L419.013 39.7422L415.45 39.8318L414.51 2.42822L418.072 2.33868L418.638 24.837L431.09 12.7049L435.871 12.5848L422.414 25.774L437.011 39.2898Z" fill="white"/>
<path d="M444.523 5.98849C444.066 6.46899 443.417 6.7667 442.76 6.7832C442.01 6.80205 441.441 6.53497 440.96 6.07804C440.48 5.6211 440.182 4.97195 440.166 4.31575C440.147 3.5658 440.414 2.99625 440.871 2.51575C441.328 2.03525 441.977 1.73754 442.633 1.72104C443.383 1.70219 443.953 1.96927 444.433 2.4262C444.914 2.88313 445.211 3.53229 445.228 4.18849C445.244 4.84469 444.977 5.41425 444.523 5.98849ZM441.792 39.1694L441.121 12.4526L444.683 12.363L445.355 39.0798L441.792 39.1694Z" fill="white"/>
<path d="M464.634 11.2047C467.915 11.1223 470.472 12.0898 472.396 14.0113C474.32 15.9328 475.326 18.6278 475.409 21.9088L475.821 38.3138L472.259 38.4034L471.846 21.9983C471.787 19.6547 471.084 17.7963 469.832 16.5146C468.581 15.2328 466.689 14.6238 464.44 14.6803C461.909 14.7439 459.774 15.6418 458.22 17.2755C456.667 18.9092 455.886 21.4615 455.971 24.8362L456.322 38.804L452.76 38.8935L452.089 12.1767L455.651 12.0872L455.754 16.2118C457.643 12.9751 460.603 11.3061 464.634 11.2047Z" fill="white"/>
<path d="M504.96 10.8474L508.522 10.7579L509.168 36.4435C509.265 40.2869 508.028 43.3197 505.459 45.6356C502.891 47.9514 499.73 49.0627 496.074 49.1546C489.793 49.3125 485.52 47.2624 483.253 42.9107L486.302 41.0518C487.978 44.2928 491.206 45.8062 495.987 45.6861C499.08 45.6083 501.402 44.7057 503.143 43.0673C504.885 41.4289 505.672 39.1579 505.603 36.4393L505.5 32.3146C503.161 36.3131 499.555 38.3736 494.868 38.4914C491.024 38.5881 487.804 37.3557 485.017 34.7055C482.23 32.0553 480.835 28.8073 480.736 24.8701C480.637 20.9329 481.867 17.6189 484.517 14.832C487.168 12.0451 490.322 10.6526 494.165 10.5559C498.946 10.4358 502.558 12.3149 505.094 16.1908L504.96 10.8474ZM487.391 32.1132C489.505 34.1237 491.968 35.0936 494.968 35.0182C497.968 34.9428 500.379 33.8504 502.39 31.7362C504.4 29.622 505.274 27.0674 505.201 24.1613C505.125 21.1615 504.033 18.7501 502.013 16.7373C499.898 14.7268 497.435 13.7568 494.435 13.8322C491.436 13.9076 489.024 15.0001 487.014 17.1143C485.003 19.2285 484.129 21.7832 484.202 24.6892C484.278 27.689 485.373 30.1941 487.391 32.1132Z" fill="white"/>
</svg>
