<svg width="52" height="52" viewBox="0 0 52 52" fill="none" xmlns="http://www.w3.org/2000/svg">
<path fill-rule="evenodd" clip-rule="evenodd" d="M32.9699 45.6027L32.0166 41.0733L28.9834 41.6879L25.9502 42.3025L26.5235 45.0674L27.0968 47.8324L28.3936 47.5635L29.6904 47.2946L29.5031 46.3908L29.3157 45.487L28.8922 45.5748L28.4687 45.6626L28.2756 44.7313L28.0825 43.8L29.3691 43.5481L30.6557 43.2962L31.2233 46.0341L31.791 48.7721L29.6369 49.2332L27.4828 49.6943L27.6591 50.5443L27.8353 51.3944L30.8792 50.7632L33.9231 50.1321L32.9699 45.6027ZM43.8547 43.7844C43.9994 43.5889 45.728 41.3938 46.9795 39.8165C47.2383 39.4904 47.4441 39.195 47.4369 39.1601C47.4297 39.1252 47.2964 38.9988 47.1406 38.8791C46.9849 38.7594 46.3238 38.2373 45.6716 37.7187C45.0194 37.2001 44.1441 36.5055 43.7264 36.1751C43.3087 35.8447 42.3288 35.0677 41.5489 34.4485C40.3256 33.4773 40.1216 33.3343 40.0633 33.4078C40.0262 33.4545 39.7738 33.7703 39.5024 34.1093L39.009 34.7257L39.1909 34.87C41.2658 36.5165 41.8864 37.0198 41.8955 37.0635C41.9015 37.0925 41.7319 37.3357 41.5186 37.604L41.1307 38.0917L40.6293 37.9748C40.3536 37.9106 39.4441 37.7015 38.6083 37.5102L37.0886 37.1624L36.4318 38C36.0705 38.4607 35.7677 38.8577 35.7588 38.8822C35.7499 38.9068 36.645 39.1362 37.7478 39.3921L39.753 39.8573L39.8694 40.5119L39.9858 41.1664L41.7726 42.595C42.7554 43.3808 43.5895 44.0191 43.6262 44.0134C43.6629 44.0078 43.7657 43.9047 43.8547 43.7844ZM15.8584 49.0975C16.0329 48.778 16.5415 47.8314 16.9887 46.994C18.5089 44.1469 19.1406 42.9678 19.541 42.2302C19.7609 41.8252 19.9223 41.4649 19.8997 41.4295C19.8771 41.3942 18.943 40.8714 17.824 40.2677C15.0767 38.7857 15.2291 38.8612 15.172 38.9533C15.0434 39.1614 14.3219 40.5315 14.3291 40.5542C14.3337 40.5685 15.0361 40.9553 15.8901 41.4138C16.744 41.8723 17.4398 42.2696 17.4362 42.2967C17.4241 42.3881 16.642 43.8452 16.6004 43.8538C16.5632 43.8616 15.6706 43.3901 14.5488 42.7704C14.3165 42.642 14.107 42.541 14.0833 42.5459C14.0489 42.553 13.4642 43.6045 13.2409 44.0608C13.1963 44.152 13.3339 44.2412 14.4372 44.8362C15.1228 45.2059 15.688 45.5286 15.6931 45.5533C15.7073 45.6216 14.8975 47.1362 14.8378 47.1531C14.8092 47.1612 14.1458 46.8204 13.3636 46.3958C12.5815 45.9712 11.8797 45.5936 11.804 45.5568C11.6673 45.4902 11.6635 45.4949 11.2919 46.1865C11.0859 46.5697 10.8862 46.9459 10.8482 47.0224L10.7789 47.1614L13.1103 48.414C14.3926 49.103 15.4641 49.6694 15.4915 49.6726C15.5188 49.6759 15.6839 49.4171 15.8584 49.0975ZM42.5271 40.9085C42.163 40.6168 41.8545 40.3615 41.8416 40.3412C41.8141 40.2979 43.3253 38.3482 43.4206 38.304C43.4753 38.2786 44.9117 39.3645 44.8797 39.407C44.3783 40.0716 43.2848 41.4252 43.2447 41.431C43.2142 41.4354 42.8912 41.2003 42.5271 40.9085ZM5.20806 37.3204C6.51179 36.7985 8.4104 36.0405 9.42719 35.636C10.444 35.2314 11.2968 34.8805 11.3224 34.8562C11.3709 34.81 10.8023 33.3156 10.7095 33.2454C10.6827 33.2252 10.0562 33.4504 9.31716 33.7458C8.57819 34.0412 7.45909 34.4884 6.83028 34.7395C6.20152 34.9905 5.66589 35.1934 5.64002 35.1904C5.61414 35.1872 6.47885 34.2276 7.56165 33.0577C8.64439 31.8878 9.57371 30.8717 9.62679 30.7997L9.72326 30.6688L9.40207 29.8818C9.22542 29.4489 9.06885 29.0868 9.0542 29.0771C9.02932 29.0607 7.81721 29.535 4.7839 30.7482C4.09694 31.0229 2.83449 31.5242 1.97846 31.8622C1.12242 32.2002 0.409075 32.4941 0.393212 32.5153C0.360504 32.5591 0.966571 34.0984 1.03411 34.1429C1.05829 34.1589 1.22083 34.1126 1.39531 34.04C2.41345 33.6167 6.08612 32.1673 6.10659 32.1809C6.12809 32.195 4.97153 33.4616 2.71745 35.8923C2.20395 36.446 2.03529 36.6625 2.05267 36.7455C2.06551 36.8067 2.20464 37.1781 2.36182 37.5709C2.51906 37.9637 2.64919 38.2922 2.65102 38.3011C2.65836 38.3365 2.92915 38.2326 5.20806 37.3204ZM51.0436 25.6497L51.4682 25.1493L51.2616 23.43C51.1479 22.4845 51.049 21.6247 51.0418 21.5195C51.0295 21.3407 50.9939 21.3047 50.4981 20.9698L49.9675 20.6114L49.5891 20.6503C49.381 20.6718 47.6293 20.8744 45.6966 21.1007L42.1825 21.5122L41.8183 21.9663C41.618 22.216 41.4487 22.425 41.4422 22.4306C41.4294 22.4416 41.8471 26.0466 41.8789 26.2C41.8894 26.2503 42.1076 26.4608 42.3638 26.6676C42.7328 26.9655 42.8664 27.0422 43.0061 27.0365C43.1032 27.0325 44.7582 26.8398 46.6839 26.6084C48.6096 26.377 50.2827 26.1792 50.4021 26.1689C50.6047 26.1513 50.6471 26.117 51.0436 25.6497ZM46.2135 24.682C44.9001 24.8329 43.7997 24.9618 43.7681 24.9684C43.7107 24.9803 43.5542 24.0469 43.5298 23.5473L43.5191 23.3267L46.3303 22.9944C47.8764 22.8116 49.1583 22.6732 49.1789 22.6868C49.2165 22.7117 49.4041 24.0948 49.3895 24.239C49.3833 24.2995 49.2967 24.3263 48.9915 24.3619C48.777 24.387 47.5269 24.531 46.2135 24.682ZM9.29999 22.1226C10.4817 18.5423 10.7606 17.6734 10.7323 17.66C10.6165 17.605 9.00799 17.0934 8.97342 17.1005C8.9486 17.1057 8.70342 17.799 8.42856 18.6413C8.15366 19.4837 7.89755 20.2465 7.85943 20.3366L7.79013 20.5006L7.06537 20.2589C6.66676 20.1259 6.27843 19.9941 6.20247 19.966L6.06433 19.9148L6.16394 19.6065C6.21875 19.4369 6.41817 18.8312 6.6071 18.2603C6.79604 17.6896 6.93917 17.2027 6.92514 17.1784C6.89789 17.1314 5.29561 16.5878 5.22653 16.6021C5.20403 16.6067 4.99033 17.2125 4.75166 17.9482C4.51299 18.6838 4.29833 19.2898 4.27467 19.2947C4.19236 19.3117 2.62174 18.7775 2.58294 18.7193C2.5614 18.687 2.79065 17.9086 3.09233 16.9893C3.39397 16.0701 3.63032 15.3121 3.61752 15.3049C3.53918 15.261 1.90301 14.7408 1.86904 14.749C1.84624 14.7546 1.73139 15.0591 1.6139 15.4257C1.36492 16.2027 1.01364 17.2733 0.662812 18.3246C0.256019 19.5435 0.187349 19.7624 0.196972 19.8088C0.206529 19.8549 0.487635 19.9603 1.48402 20.2915C1.81013 20.3999 2.74432 20.7118 3.55999 20.9846C4.37567 21.2574 5.57633 21.6563 6.22815 21.8711C6.87996 22.0858 7.75221 22.3756 8.16652 22.515C8.58078 22.6545 8.95538 22.7744 8.99899 22.7816C9.05302 22.7905 9.14874 22.5809 9.29999 22.1226ZM38.3728 13.6833C41.0521 10.8108 42.5827 9.19203 42.629 9.18194C42.658 9.17558 43.0999 9.56932 43.6109 10.0568C44.1219 10.5444 44.5573 10.9403 44.5785 10.9367C44.645 10.9252 45.8043 9.6658 45.8163 9.59201C45.8226 9.5534 45.7085 9.41386 45.5628 9.28199C45.1703 8.92654 44.626 8.41455 43.1083 6.97319C41.0088 4.97927 40.7329 4.72218 40.6857 4.71512C40.6616 4.71152 40.5227 4.84113 40.377 5.00313C40.2314 5.16514 39.954 5.46363 39.7607 5.66639C39.5675 5.86915 39.4118 6.04704 39.4148 6.06166C39.4179 6.07628 39.8377 6.4834 40.3477 6.96635C40.8578 7.44936 41.2793 7.86494 41.2845 7.88987C41.2964 7.94718 40.936 8.33604 37.1454 12.3557C36.6664 12.8638 36.265 13.3057 36.2533 13.3379C36.2417 13.37 36.3453 13.5023 36.4835 13.6319C36.6217 13.7614 36.8965 14.0267 37.0942 14.2214C37.2919 14.4161 37.4775 14.5709 37.5067 14.5652C37.5359 14.5596 37.9256 14.1628 38.3728 13.6833ZM14.6293 13.1972C14.9992 12.9675 15.2959 12.7512 15.2887 12.7165C15.2815 12.6818 15.0103 12.2235 14.6859 11.6981C14.3616 11.1728 13.9327 10.4734 13.7329 10.1439L13.3695 9.54495L13.9099 9.20686L14.4502 8.86875L14.9298 9.15308C15.1935 9.30944 15.9707 9.80926 16.6567 10.2638C17.3427 10.7183 17.94 11.0825 17.9839 11.0732C18.0278 11.064 18.4265 10.829 18.8699 10.551C19.3133 10.273 19.7175 10.0236 19.768 9.99676C19.8406 9.95821 19.4922 9.70501 18.1209 8.79995L16.3816 7.65202L16.5065 7.02837L16.6314 6.40473L15.4425 4.46846L14.2537 2.53225L14.0138 2.58159C13.8345 2.6185 13.1668 3.00808 11.3631 4.12819C10.037 4.95165 8.93434 5.64223 8.91276 5.66273C8.89113 5.68329 8.98658 5.88219 9.12481 6.10472C9.26304 6.32724 9.73008 7.08472 10.1626 7.78796C11.4337 9.8544 11.9669 10.7178 12.7279 11.9416C13.1227 12.5764 13.5217 13.2235 13.6147 13.3796C13.7329 13.578 13.8098 13.656 13.8703 13.639C13.9179 13.6257 14.2594 13.4268 14.6293 13.1972ZM30.6067 9.44055C30.6449 9.18098 30.8008 8.11187 30.9531 7.06463L31.23 5.16059L30.4644 2.70293C30.0434 1.35119 29.6935 0.24167 29.6869 0.237272C29.652 0.214249 28.2288 0.0219895 28.1753 0.0330854C28.1143 0.0457287 27.8843 0.364849 25.9863 3.06978C25.189 4.2062 25.1093 4.34154 25.0735 4.62055C25.052 4.78865 24.9792 5.29947 24.9118 5.75564C24.6678 7.40785 24.4733 8.76027 24.4623 8.88266C24.4493 9.02676 24.463 9.03062 25.5197 9.18253C25.8817 9.23456 26.1915 9.25256 26.2081 9.22255C26.2248 9.19254 26.2969 8.75662 26.3683 8.25385C26.4398 7.75108 26.5104 7.31896 26.5252 7.29364C26.5523 7.24744 28.8893 7.56585 28.9973 7.63045C29.031 7.65059 28.9976 8.07059 28.9165 8.64751C28.8405 9.18799 28.8003 9.64242 28.8272 9.65725C28.8701 9.68106 30.4708 9.92619 30.5185 9.91628C30.5288 9.91415 30.5685 9.7001 30.6067 9.44055ZM27.471 5.91546C26.8589 5.82779 26.7179 5.78965 26.7317 5.71572C26.7411 5.66542 26.7673 5.47878 26.7898 5.30098C26.8282 4.99982 26.8868 4.89883 27.6438 3.83083C28.0909 3.20017 28.4661 2.69035 28.4777 2.69794C28.4892 2.70558 28.7003 3.29942 28.9469 4.01756L29.395 5.3233L29.3333 5.74896L29.2717 6.17462L28.7496 6.09924C28.4624 6.05775 27.8871 5.97509 27.471 5.91546ZM11.8976 7.1787C11.653 6.78722 11.4522 6.43371 11.4516 6.39314C11.4501 6.30289 13.5855 4.94067 13.6519 4.98951C13.7241 5.04268 14.6041 6.53707 14.5753 6.55784C14.3125 6.74775 12.4712 7.87864 12.4168 7.88367C12.3735 7.8876 12.1572 7.59392 11.8976 7.1787Z" fill="white"/>
</svg>
