<svg width="784" height="112" viewBox="0 0 784 112" fill="none" xmlns="http://www.w3.org/2000/svg">
<path d="M222.618 68.0056L195.868 15.1168L178.994 15.541L181.235 104.691L198.109 104.267L196.765 50.833L223.513 103.628L240.387 103.204L238.146 14.0541L221.272 14.4782L222.618 68.0056Z" fill="white"/>
<path d="M3.0313 109.264L62.1832 107.777L60.84 54.343L35.5294 54.9792L35.9771 72.7904L44.414 72.5784L44.8617 90.3895L19.4573 91.0281L18.1141 37.5946L60.3923 36.5318L59.9446 18.7206L0.792603 20.2075L3.0313 109.264Z" fill="white"/>
<path d="M417.476 54.2891L416.356 9.76108L357.204 11.248L359.443 100.304L376.317 99.8799L375.421 64.2575L388.077 63.9394L405.846 99.1376L426.938 98.6074L409.169 63.4091L417.476 54.2891ZM400.284 45.81L374.974 46.4463L374.526 28.6351L399.837 27.9988L400.284 45.81Z" fill="white"/>
<path d="M531.171 24.6974L556.481 24.0612L558.272 95.306L575.24 94.8794L573.449 23.6346L598.76 22.9984L598.312 5.18718L530.723 6.88623L531.171 24.6974Z" fill="white"/>
<path d="M765.205 54.459L773.418 45.3413L772.299 0.81333L713.147 2.30029L715.386 91.3563L732.26 90.9321L731.364 55.3097L744.019 54.9916L761.789 90.1898L782.975 89.6572L765.205 54.459ZM756.321 36.8599L731.01 37.4962L730.562 19.685L755.873 19.0487L756.321 36.8599Z" fill="white"/>
<path d="M96.1247 17.6242L92.1875 17.7231L94.4286 106.873L98.3658 106.774L145.612 105.586L145.158 87.4938L110.941 88.354L110.498 70.7302L138.059 70.0374L137.618 52.5075L110.058 53.2003L109.603 35.1078L143.819 34.2477L143.371 16.4365L109.155 17.2966L96.1247 17.6242Z" fill="white"/>
<path d="M276.018 13.1022L272.081 13.2012L274.322 102.351L278.259 102.252L325.412 101.067L324.957 82.9742L290.741 83.8343L290.298 66.2106L317.858 65.5178L317.418 47.9878L289.857 48.6807L289.402 30.5882L323.619 29.7281L323.171 11.9169L288.955 12.777L276.018 13.1022Z" fill="white"/>
<path d="M670.307 3.37707L634.028 4.28904L626.197 13.6785L628.066 88.0169L636.333 95.9699L672.611 95.0579L680.843 86.6902L678.974 12.3518L670.307 3.37707ZM662.119 76.9364L646.276 77.3346L644.898 22.4949L660.74 22.0966L662.119 76.9364Z" fill="white"/>
<path d="M489.467 7.54811L474.655 7.92044L453.077 52.55L454.217 97.9217L471.091 97.4975L471.089 97.4038L470.603 78.0927L495.352 77.4706L495.837 96.7817L495.842 96.9692L512.716 96.545L511.575 51.1733L511.2 51.1827L511.57 50.9858L489.467 7.54811ZM470.353 64.4038L470.15 56.3419L481.916 31.8451L494.894 55.5323L495.101 63.7817L470.353 64.4038Z" fill="white"/>
</svg>
