<svg width="42" height="41" viewBox="0 0 42 41" fill="none" xmlns="http://www.w3.org/2000/svg">
<path d="M20.9944 13.6638C17.1383 13.6638 13.9915 16.7357 13.9915 20.5C13.9915 24.2643 17.1383 27.3362 20.9944 27.3362C24.8504 27.3362 27.9972 24.2643 27.9972 20.5C27.9972 16.7357 24.8504 13.6638 20.9944 13.6638ZM41.9977 20.5C41.9977 17.6691 42.0239 14.8638 41.8611 12.038C41.6982 8.75581 40.9312 5.84285 38.4726 3.44273C36.0087 1.03747 33.03 0.293848 29.6678 0.134865C26.7679 -0.024117 23.8943 0.00152543 20.9996 0.00152543C18.0997 0.00152543 15.2261 -0.024117 12.3314 0.134865C8.96921 0.293848 5.98524 1.0426 3.52663 3.44273C1.06276 5.84798 0.301009 8.75581 0.138152 12.038C-0.0247047 14.8689 0.00156261 17.6742 0.00156261 20.5C0.00156261 23.3258 -0.0247047 26.1362 0.138152 28.962C0.301009 32.2442 1.06801 35.1572 3.52663 37.5573C5.9905 39.9625 8.96921 40.7062 12.3314 40.8651C15.2313 41.0241 18.105 40.9985 20.9996 40.9985C23.8995 40.9985 26.7732 41.0241 29.6678 40.8651C33.03 40.7062 36.014 39.9574 38.4726 37.5573C40.9365 35.152 41.6982 32.2442 41.8611 28.962C42.0292 26.1362 41.9977 23.3309 41.9977 20.5ZM20.9944 31.0185C15.0317 31.0185 10.2195 26.3208 10.2195 20.5C10.2195 14.6792 15.0317 9.98152 20.9944 9.98152C26.957 9.98152 31.7692 14.6792 31.7692 20.5C31.7692 26.3208 26.957 31.0185 20.9944 31.0185ZM32.2105 12.0073C30.8183 12.0073 29.6941 10.9098 29.6941 9.55073C29.6941 8.19168 30.8183 7.09419 32.2105 7.09419C33.6026 7.09419 34.7269 8.19168 34.7269 9.55073C34.7273 9.87344 34.6625 10.1931 34.5362 10.4913C34.4099 10.7895 34.2245 11.0605 33.9908 11.2887C33.757 11.5169 33.4794 11.6978 33.174 11.8211C32.8685 11.9444 32.5411 12.0077 32.2105 12.0073Z" fill="white"/>
</svg>
