<svg width="42" height="41" viewBox="0 0 42 41" fill="none" xmlns="http://www.w3.org/2000/svg">
<path fill-rule="evenodd" clip-rule="evenodd" d="M42 20.5C42 31.8211 32.5972 41 21 41C9.40275 41 0 31.8211 0 20.5C0 9.17888 9.40275 0 21 0C32.5972 0 42 9.17888 42 20.5ZM21.7525 15.1341C19.7103 15.9627 15.6275 17.6795 9.506 20.283C8.512 20.6691 7.9905 21.0467 7.94325 21.4157C7.86275 22.0409 8.66425 22.2869 9.75275 22.62C9.9015 22.6662 10.0555 22.7123 10.213 22.7635C11.2857 23.1035 12.7278 23.5015 13.4768 23.5169C14.1575 23.5306 14.917 23.2573 15.7553 22.6969C21.4743 18.9266 24.4265 17.0218 24.612 16.9808C24.7432 16.9518 24.9252 16.9142 25.0477 17.0218C25.1702 17.1278 25.158 17.3293 25.1458 17.384C25.0653 17.7137 21.9258 20.5649 20.2983 22.0409C19.7908 22.5005 19.432 22.8268 19.3585 22.9019C19.194 23.0676 19.026 23.2265 18.865 23.3785C17.8675 24.3147 17.122 25.0185 18.907 26.1665C19.7645 26.7183 20.4505 27.1745 21.1348 27.6289C21.882 28.126 22.6275 28.6214 23.5935 29.2398C23.8385 29.397 24.073 29.5593 24.3022 29.7182C25.172 30.3246 25.9543 30.8679 26.9202 30.7825C27.4803 30.7312 28.0612 30.217 28.3552 28.6812C29.05 25.0493 30.4185 17.1841 30.7352 13.9417C30.7545 13.6725 30.7428 13.402 30.7002 13.1354C30.6748 12.92 30.5674 12.7218 30.3993 12.5802C30.149 12.3803 29.7605 12.3376 29.5855 12.341C28.7962 12.3547 27.5853 12.7664 21.7525 15.1341Z" fill="white"/>
</svg>
