<svg width="315" height="425" viewBox="0 0 315 425" fill="none" xmlns="http://www.w3.org/2000/svg">
<path d="M188.651 309.624L168.094 332.993C168.094 332.993 181.727 358.526 181.943 391.416C181.943 391.416 176.317 415.217 183.242 421.926C190.165 428.633 210.505 413.27 213.968 410.025C217.429 406.779 221.757 369.994 223.272 365.017C224.787 360.04 230.196 342.88 230.196 342.88L188.651 309.624Z" fill="white"/>
<path d="M188.651 309.624L168.094 332.993C168.094 332.993 181.727 358.526 181.943 391.416C181.943 391.416 176.317 415.217 183.242 421.926C190.165 428.633 210.505 413.27 213.968 410.025C217.429 406.779 221.757 369.994 223.272 365.017C224.787 360.04 230.196 342.88 230.196 342.88L188.651 309.624Z" stroke="#272322" stroke-width="0.870667" stroke-miterlimit="10" stroke-linecap="round" stroke-linejoin="round"/>
<path d="M189.004 193.211C189.004 193.211 237.615 183.821 273.584 188.759C309.554 193.697 319.995 214.199 311.988 236C302.596 261.577 251.618 307.622 247.236 318.82C242.854 330.017 230.683 352.9 230.683 352.9C230.683 352.9 186.627 318.187 179.931 300.246C173.233 282.306 238.473 223.69 255.027 224.272" fill="#E7B100"/>
<path d="M189.004 193.211C189.004 193.211 237.615 183.821 273.584 188.759C309.554 193.697 319.995 214.199 311.988 236C302.596 261.577 251.618 307.622 247.236 318.82C242.854 330.017 230.683 352.9 230.683 352.9C230.683 352.9 186.627 318.187 179.931 300.246C173.233 282.306 238.473 223.69 255.027 224.272" stroke="black" stroke-width="0.870667" stroke-miterlimit="10"/>
<path d="M125.065 89.9654C125.259 88.9969 186.259 91.5446 186.259 91.5446C186.259 91.5446 183.82 37.8712 184.238 24.071C184.52 14.7251 179.655 21.7022 179.655 21.7022C179.655 21.7022 129.394 49.5247 129.264 49.9118C129.135 50.2997 125.065 89.9654 125.065 89.9654Z" fill="#EFBC6C"/>
<path d="M133.599 211.895C177.079 224.456 200.234 243.47 200.349 248.355C200.426 251.632 191.753 269.466 186.034 280.852C183.228 286.44 181.133 290.475 181.133 290.475C171.805 268.05 27.9706 245.845 29.3883 223.311C29.7696 217.236 37.299 202.337 57.5862 192.741C66.2814 188.629 70.3894 187.342 83.3729 185.449C89.326 184.581 112.503 181.716 120.735 183.554C133.727 186.456 164.364 177.809 178.589 181.093C213.455 189.144 226.302 194.184 226.302 194.184L274.987 223.395L254.539 241.896C254.539 241.896 204.115 248.128 196.962 243.305C189.809 238.481 116.386 204.776 116.386 204.776" fill="#E7B100"/>
<path d="M165.151 68.2591C165.248 68.4534 166.475 78.337 173 84.8613C179.525 91.3863 174.098 111.672 174.098 111.672C174.098 111.672 151.293 107.473 151.1 106.891C150.906 106.31 133.882 87.2191 133.882 87.2191C133.882 87.2191 131.956 69.5944 131.245 67.6565C130.535 65.7179 131.977 57.212 131.977 57.212L165.151 68.2591Z" fill="#F4AEC2"/>
<path d="M165.151 68.2591C165.248 68.4534 166.475 78.337 173 84.8613C179.525 91.3863 174.098 111.672 174.098 111.672C174.098 111.672 151.293 107.473 151.1 106.891C150.906 106.31 133.882 87.2191 133.882 87.2191C133.882 87.2191 131.956 69.5944 131.245 67.6565C130.535 65.7179 131.977 57.212 131.977 57.212L165.151 68.2591Z" stroke="black" stroke-width="0.58" stroke-miterlimit="10"/>
<path d="M130.298 32.943C130.298 32.943 128.403 53.2719 131.762 59.3871C135.121 65.5031 143.304 70.8426 150.368 72.6519C157.43 74.4605 168.112 70.1538 172.074 66.7945C176.036 63.436 178.793 57.4062 179.396 51.8928C179.999 46.3802 184.564 32.5121 184.219 28.6364C183.875 24.7599 180.601 23.7264 176.209 12.7873C171.816 1.8475 160.359 8.39442 154.158 8.39442C147.956 8.39442 132.624 15.0268 130.298 23.0368C127.972 31.0483 130.298 32.943 130.298 32.943Z" fill="#FFB3C5"/>
<path d="M130.298 32.943C130.298 32.943 128.403 53.2719 131.762 59.3871C135.121 65.5031 143.304 70.8426 150.368 72.6519C157.43 74.4605 168.112 70.1538 172.074 66.7945C176.036 63.436 178.793 57.4062 179.396 51.8928C179.999 46.3802 184.564 32.5121 184.219 28.6364C183.875 24.7599 180.601 23.7264 176.209 12.7873C171.816 1.8475 160.359 8.39442 154.158 8.39442C147.956 8.39442 132.624 15.0268 130.298 23.0368C127.972 31.0483 130.298 32.943 130.298 32.943Z" stroke="black" stroke-width="0.58" stroke-miterlimit="10"/>
<path d="M132.753 81.0603C132.925 81.4912 141.538 95.4353 159.154 93.2389C170.057 91.8796 172.298 83.9338 172.298 83.9338C172.298 83.9338 176.581 86.001 186.985 90.0498C197.389 94.0979 210.826 116.536 215.995 123.513C221.163 130.491 226.302 135.381 226.302 135.381C226.302 135.381 199.199 158.528 197.648 157.882C196.097 157.236 213.247 190.487 213.247 190.487C213.247 190.487 152.948 184.867 100.638 184.867L108.819 133.914L112.501 87.4005L132.753 81.0603Z" fill="black"/>
<path d="M273.588 81.5232C271.964 76.0047 257.999 98.9726 248.433 108.038C233.99 121.726 216.083 126.787 215.591 131.948C214.374 144.687 197.089 157.67 197.089 157.67C197.089 157.67 205.529 161.727 224.354 162.701C243.179 163.674 283 98.939 286.895 96.7302" fill="#FFB3C5"/>
<path d="M273.588 81.5232C271.964 76.0047 257.999 98.9726 248.433 108.038C233.99 121.726 216.083 126.787 215.591 131.948C214.374 144.687 197.089 157.67 197.089 157.67C197.089 157.67 205.529 161.727 224.354 162.701C243.179 163.674 283 98.939 286.895 96.7302" stroke="black" stroke-width="0.58" stroke-miterlimit="10"/>
<path d="M196.364 117.357L194.728 136.393C194.728 136.393 182.238 143.026 174.055 136.393C165.872 129.76 196.364 117.357 196.364 117.357Z" fill="#BC755C"/>
<path d="M165.425 96.5899L167.359 114.901L196.829 105.944L197.704 95.7499L165.425 96.5899Z" fill="#BC755C"/>
<path d="M141.604 35.1825L132.946 33.5032L133.592 37.0305L140.376 38.0253L141.604 35.1825Z" fill="black"/>
<path d="M131.466 42.0302C131.466 42.0302 136.5 75.236 138.567 82.3417C140.634 89.4481 149.807 117.357 153.684 122.654C157.56 127.952 161.953 134.67 161.953 134.67C161.953 134.67 168.157 145.403 168.544 145.463" stroke="#FFD27C" stroke-width="1.38533" stroke-miterlimit="10"/>
<path d="M85.3344 139.66C85.3344 139.66 86.8573 158.573 93.1698 164.968C99.483 171.364 104.134 178.148 119.638 180.279C130.17 181.728 154.5 156.788 174.098 141.131C183.351 133.739 189.307 134.733 191.347 134.153C197.709 132.344 203.59 127.403 200.359 123.139C199.902 122.536 201.671 122.619 201.135 119.65C200.65 116.97 199.143 118.396 199.067 117.357C198.991 116.312 201.457 115.645 200.843 112.124C200.664 111.094 198.886 109.845 198.888 108.698C198.89 107.621 204.72 106.891 203.751 100.689C203.438 98.6906 198.97 99.0098 198.97 99.0098C198.97 99.0098 190.676 101.94 183.725 105.326C178.175 108.028 173.533 108.568 171.774 109.064C167.813 110.183 165.98 100.966 165.635 98.4598C165.29 95.9529 156.505 94.8332 156.505 102.585C156.505 110.337 158.397 117.486 156.751 122.138C156.751 122.138 155.155 126.295 140.989 135.253C140.593 135.503 140.187 135.757 139.772 136.015C139.599 136.122 139.425 136.229 139.25 136.337C139.245 136.34 138.179 136.996 138.179 136.996L85.3344 139.66Z" fill="#FFB3C5"/>
<path d="M85.3344 139.66C85.3344 139.66 86.8573 158.574 93.1698 164.968C99.483 171.364 104.134 178.148 119.638 180.279C130.17 181.728 154.5 156.788 174.098 141.131C183.351 133.739 189.307 134.733 191.347 134.153C197.709 132.344 203.59 127.403 200.359 123.139C199.902 122.536 201.671 122.619 201.135 119.65C200.65 116.97 199.143 118.396 199.067 117.357C198.991 116.312 201.457 115.645 200.843 112.124C200.664 111.094 198.886 109.845 198.888 108.698C198.89 107.621 204.72 106.891 203.751 100.689C203.438 98.6906 198.97 99.0098 198.97 99.0098C198.97 99.0098 190.676 101.94 183.725 105.326C178.175 108.028 173.533 108.568 171.774 109.064C167.813 110.183 165.98 100.966 165.635 98.4598C165.29 95.9529 156.505 94.8332 156.505 102.585C156.505 110.337 158.397 117.486 156.751 122.138C156.751 122.138 155.155 126.295 140.989 135.253C140.593 135.503 140.187 135.757 139.772 136.015C139.599 136.122 139.425 136.229 139.25 136.337C139.245 136.34 138.179 136.996 138.179 136.996L85.3344 139.66Z" stroke="black" stroke-width="0.58" stroke-miterlimit="10"/>
<path d="M165.097 49.3089C165.097 49.3089 168.715 49.5675 169.403 47.4996C170.093 45.4325 168.198 42.8482 166.819 42.5903C165.441 42.3317 167.324 34.2348 167.324 34.2348" stroke="black" stroke-width="0.461333" stroke-miterlimit="10"/>
<path d="M156.785 32.5985C154.234 31.9067 151.014 30.9185 146.276 31.4356C141.539 31.9528 139.601 34.2354 140.031 37.8956C140.462 41.5566 146.726 43.0971 151.53 43.5383C156.225 43.9685 159.283 43.2797 160.402 42.4178C161.522 41.5566 162.789 39.198 162.534 37.4807C162.212 35.3113 158.296 33.0082 156.785 32.5985Z" fill="black"/>
<path d="M184.714 35.2406C182.164 34.5489 178.944 33.5606 174.206 34.0777C169.469 34.5942 167.531 36.8768 167.96 40.5378C168.391 44.1987 174.655 45.7392 179.46 46.1797C184.154 46.6106 187.212 45.9218 188.332 45.0599C189.452 44.1987 190.719 41.8401 190.464 40.1229C190.142 37.9535 186.226 35.6504 184.714 35.2406Z" fill="black"/>
<path d="M161.953 37.4808C161.953 37.4808 164.892 36.1842 168.801 37.9928V40.1228C168.801 40.1228 163.31 39.2506 161.501 40.1228L161.953 37.4808Z" fill="black"/>
<path d="M145.005 33.6319C145.005 33.6319 150.195 32.7276 153.791 33.6319C157.388 34.5362 159.132 35.7853 159.649 36.2593C160.166 36.7326 160.597 38.7786 160.231 39.5105C159.864 40.2431 158.938 41.3622 157.28 41.6646C155.622 41.9655 152.822 42.3746 150.346 41.6646C147.869 40.9531 145.049 40.3505 143.735 38.9079C142.422 37.4653 142.637 36.0869 143.024 35.2469C143.412 34.4077 145.005 33.6319 145.005 33.6319Z" stroke="#3D3D3D" stroke-width="0.461333" stroke-miterlimit="10"/>
<path d="M174.981 36.1515C174.981 36.1515 179.826 35.7637 182.54 36.5825C185.253 37.4006 187.773 38.1544 188.526 38.9513C189.28 39.7475 188.979 41.7503 188.72 42.3318C188.461 42.9132 187.708 44.2484 185.64 44.7437C183.573 45.2389 176.898 44.3186 174.874 43.6699C172.849 43.0213 170.287 41.1689 170.309 39.4896C170.33 37.8096 172.699 36.2414 174.981 36.1515V36.1515Z" stroke="#3D3D3D" stroke-width="0.461333" stroke-miterlimit="10"/>
<path d="M155.525 35.7637C155.525 35.7637 157.819 36.668 158.061 37.5569C158.303 38.4444 158.847 38.5744 159.035 38.4612C159.223 38.348 159.719 37.974 159.035 37.0303C158.351 36.0865 157.35 35.6673 156.639 35.4087C155.929 35.1501 155.655 34.7462 155.283 35.053C154.911 35.3598 155.084 35.573 155.525 35.7637Z" fill="white"/>
<path d="M138.18 20.4531C138.18 20.4531 161.243 20.9053 162.664 21.4224C162.664 21.4224 164.731 13.0238 166.54 10.9567C168.349 8.88882 171.063 23.3603 171.063 23.3603C171.063 23.3603 180.042 27.2367 182.368 27.8824C184.693 28.5289 186.05 29.1746 186.05 29.1746C186.05 29.1746 187.407 24.7167 183.208 17.0938C179.008 9.47098 175.52 4.43168 161.824 1.33096C148.128 -1.76975 136.435 1.13739 132.042 4.04454C127.649 6.95169 119.789 11.495 115.913 23.1236C113.861 29.279 96.6958 50.1908 85.5281 72.4582C75.6014 92.2517 74.8688 115.548 74.8688 115.548L129.264 122.719C129.264 122.719 132.882 20.9053 135.337 19.3553C137.792 17.8046 138.18 20.4531 138.18 20.4531Z" fill="#FFD27C"/>
<path d="M185.08 38.7354C185.08 38.7354 186.286 39.3819 186.674 40.0276C187.062 40.6733 187.622 41.449 187.901 41.4702C188.182 41.4921 188.003 40.0787 187.636 39.5316C187.27 38.9845 186.524 38.6061 185.92 38.3483C185.317 38.0897 184.628 38.3052 185.08 38.7354Z" fill="white"/>
<path d="M166 93.9706L163.6 98.7191C163.6 98.7191 172.252 101.594 181.593 101.755C190.934 101.917 199.713 98.3963 199.713 98.3963L197.335 93.7763L166 93.9706Z" fill="#513A36"/>
<path d="M90.6747 92.0328C82.9941 100.618 77.8409 140.355 77.8409 140.355C77.8409 140.355 91.3292 145.131 107.17 146.04C122.933 146.945 138.05 137.449 138.05 137.449L129.785 82.3508C129.785 82.3508 97.3911 84.5268 90.6747 92.0328Z" fill="black"/>
<path d="M197.335 93.7766C197.335 93.7766 196.034 92.4845 185.214 91.7424C174.396 90.9988 167.596 92.4845 166 93.9709C164.403 95.4567 175.651 98.1381 183.1 97.9759C190.549 97.8145 196.744 96.7159 197.335 93.7766Z" fill="#44312C"/>
<path d="M179.184 92.7757C179.184 92.7757 174.395 92.9372 173.686 93.7764C172.976 94.6172 177.411 95.8115 180.071 95.7472C182.731 95.6822 191.008 95.3922 192.014 94.6807C193.019 93.9707 187.225 92.5172 179.184 92.7757Z" stroke="#30221F" stroke-width="0.625333" stroke-miterlimit="10"/>
<path d="M180.907 93.893C179.684 85.9655 177.584 73.0726 177.081 71.722C176.321 70.8915 167.636 62.5046 162.97 58.0145L164.804 59.1621L165.769 58.5974C166.999 59.7808 177.711 70.0902 178.303 70.8148C178.51 71.0682 178.795 71.4152 180.654 82.6786C181.556 88.1518 182.399 93.6067 182.407 93.6615L180.907 93.893Z" fill="white"/>
<path d="M144.187 15.4786C144.187 15.4786 136.564 21.4865 134.949 32.4694C133.334 43.4516 133.959 82.8295 139.256 93.7467C144.553 104.665 149.943 124.172 151.493 124.948C153.044 125.722 120.678 119.715 112.344 119.908C104.011 120.102 94.1265 115.257 93.3508 114.676C92.5758 114.094 94.4428 95.4888 95.9935 84.4424C97.545 73.3952 128.23 17.6101 133.571 14.5955C138.911 11.581 144.187 15.4786 144.187 15.4786Z" fill="#FFD27C"/>
<path d="M145.286 45.5365C145.286 45.5365 138.739 45.0018 134.691 47.2413C130.643 49.4809 137.965 51.5918 143.907 50.971C149.415 50.3961 151.401 45.7264 145.286 45.5365Z" fill="#F7775E"/>
<path d="M179.931 48.7853C178.088 48.3565 175.97 48.0841 174.095 48.3938C170.19 49.0402 174.158 52.382 179.022 54.2147" fill="#F7775E"/>
<path d="M157.948 57.8367C157.948 57.8367 161.178 58.6007 162.309 58.2136C163.439 57.825 163.471 58.31 164.408 58.9557C165.345 59.6021 165.603 58.1588 166.249 58.3962C166.895 58.6336 167.994 59.4407 169.059 59.4407" stroke="black" stroke-width="0.461333" stroke-miterlimit="10"/>
<path d="M139.859 135.381C139.859 135.381 113.307 144.231 101.872 151.531" stroke="black" stroke-width="0.58" stroke-miterlimit="10"/>
<path d="M123.417 44.4853C121.9 46.1974 121.415 45.7453 121.415 45.7453C121.415 45.7453 114.018 44.1405 114.009 38.9076C114.001 34.636 117.248 33.8632 122.739 34.9435C122.739 34.9435 123.32 35.0852 123.772 35.6345" fill="#FFB3C5"/>
<path d="M123.417 44.4853C121.9 46.1974 121.415 45.7453 121.415 45.7453C121.415 45.7453 114.018 44.1405 114.009 38.9076C114.001 34.636 117.248 33.8632 122.739 34.9435C122.739 34.9435 123.32 35.0852 123.772 35.6345" stroke="black" stroke-width="0.58" stroke-miterlimit="10"/>
<path d="M124.161 33.8905C124.161 33.8905 122.933 45.0341 123.062 50.6548C123.062 50.6548 123.579 84.7108 125.474 92.2051" stroke="#EFBC6C" stroke-width="0.924" stroke-miterlimit="10"/>
<path d="M122.76 41.5135C122.76 41.5135 123.019 41.3842 120.543 41.0613C118.066 40.7385 116.128 37.724 117.808 38.4128C119.488 39.1016 121.073 40.8459 122.358 40.6735" stroke="#E8859F" stroke-width="0.461333" stroke-miterlimit="10"/>
<path d="M286.35 97.1942C286.35 97.1942 297.281 93.0796 300.365 89.3478C303.448 85.6145 297.444 82.5313 293.224 84.6408C293.224 84.6408 302.385 81.966 301.213 78.76C300.04 75.5534 291.114 76.2028 291.114 76.2028C291.114 76.2028 297.93 72.3073 295.658 67.9262C294.433 65.5632 291.746 66.55 289.53 67.9612C287.635 69.1679 286.084 70.6843 286.084 70.6843" fill="#F995A4"/>
<path d="M286.35 97.1942C286.35 97.1942 297.281 93.0796 300.365 89.3478C303.448 85.6145 297.444 82.5313 293.224 84.6408C293.224 84.6408 302.385 81.9659 301.213 78.7601C300.04 75.5534 291.114 76.2028 291.114 76.2028C291.114 76.2028 297.93 72.3073 295.658 67.9262C294.433 65.5632 291.746 66.55 289.53 67.9612C287.635 69.1679 286.084 70.6843 286.084 70.6843" stroke="black" stroke-width="0.58" stroke-miterlimit="10"/>
<path d="M274.5 74.007C274.5 74.007 269.47 53.5956 269.47 49.3189C269.47 45.0436 283.913 45.6521 285.211 46.3117C286.803 47.1203 293.47 91.6851 293.7 92.745C293.931 93.8048 279.005 98.9676 278.12 98.5841C277.236 98.2013 274.5 74.007 274.5 74.007Z" fill="black"/>
<path d="M284.846 46.9907C284.341 46.9907 276.263 46.7299 271.843 48.7467C271.522 48.8935 271.339 49.2368 271.41 49.583C271.87 51.843 273.607 60.3322 274.622 64.5987C275.799 69.5489 279.49 84.6215 279.49 84.6215C279.49 84.6215 279.978 96.1632 280.424 96.6504" stroke="#353031" stroke-width="1.16" stroke-miterlimit="10"/>
<path d="M268.011 84.4422C268.011 84.4422 268.279 78.4204 271.526 74.9581C274.771 71.4958 278.45 78.4 282.236 81.0602C286.023 83.7219 288.403 84.0463 288.403 87.5078C288.403 90.9708 283.318 91.0782 279.856 90.4288C276.394 89.7802 275.745 87.8329 274.23 89.0227" fill="#F995A4"/>
<path d="M268.011 84.4422C268.011 84.4422 268.279 78.4204 271.526 74.9581C274.771 71.4958 278.45 78.4 282.236 81.0602C286.023 83.7219 288.403 84.0463 288.403 87.5078C288.403 90.9708 283.318 91.0782 279.856 90.4288C276.394 89.7802 275.745 87.8329 274.23 89.0227" stroke="black" stroke-width="0.58" stroke-miterlimit="10"/>
<path d="M290.202 67.2768C290.202 67.2768 289.079 68.2366 288.091 70.9955C287.105 73.7543 287.456 79.2582 291.107 76.3642C294.759 73.4702 295.369 72.2292 295.369 72.2292" fill="#F995A4"/>
<path d="M290.202 67.2768C290.202 67.2768 289.079 68.2366 288.091 70.9955C287.105 73.7543 287.456 79.2582 291.107 76.3642C294.759 73.4702 295.369 72.2292 295.369 72.2292" stroke="black" stroke-width="0.58" stroke-miterlimit="10"/>
<path d="M291.267 76.3038C291.267 76.3038 285.806 79.5287 289.052 83.7214C292.298 87.9141 300.654 81.0363 301.156 79.9553" fill="#F995A4"/>
<path d="M291.267 76.3038C291.267 76.3038 285.806 79.5287 289.052 83.7214C292.298 87.9141 300.654 81.0363 301.156 79.9553" stroke="black" stroke-width="0.58" stroke-miterlimit="10"/>
<path d="M294.553 84.6213C294.553 84.6213 291.419 87.0354 291.947 90.1178C292.473 93.2017 299.249 91.0521 300.364 89.3479" fill="#F995A4"/>
<path d="M294.553 84.6213C294.553 84.6213 291.419 87.0354 291.947 90.1178C292.473 93.2017 299.249 91.0521 300.364 89.3479" stroke="black" stroke-width="0.58" stroke-miterlimit="10"/>
<path d="M274.379 50.0942C274.379 50.0942 273.526 50.3374 273.588 50.9261C273.648 51.5142 273.567 52.1635 274.602 52.1635C275.637 52.1635 275.799 51.4331 275.839 50.8852C275.88 50.3374 274.672 49.9729 274.379 50.0942Z" fill="white"/>
<path d="M275.312 53.9286C275.312 53.9286 274.723 54.1112 274.46 54.8614C274.196 55.6122 274.622 57.0527 275.576 57.1951C276.529 57.3368 277.016 56.3631 277.137 55.6524C277.259 54.9432 276.792 53.7869 275.312 53.9286Z" fill="white"/>
<path d="M133.599 211.895C177.079 224.456 200.234 243.47 200.349 248.355C200.426 251.632 191.753 269.466 186.034 280.852C183.228 286.44 181.133 290.475 181.133 290.475C171.805 268.05 26.7887 244.563 29.3884 223.311C30.4438 214.678 47.8889 185.935 91.6123 184.904C135.334 183.874 165.669 205.036 165.669 205.036" stroke="#282423" stroke-width="0.870667" stroke-miterlimit="10"/>
<path d="M234.011 262.445C234.011 262.445 238.165 262.231 240.069 263.474C241.972 264.716 239.171 267.106 239.171 267.106C239.171 267.106 241.178 268.295 240.734 269.559C240.291 270.824 239.807 271.35 239.539 271.351C239.272 271.351 240.373 272.041 240.612 273.565C240.853 275.088 239.331 275.456 239.331 275.456C239.331 275.456 240.449 275.555 240.426 277.506C240.403 279.457 239.105 279.258 239.105 279.258C239.105 279.258 240.6 280.626 240.42 282.442C240.241 284.258 238.58 284.129 238.58 284.129C238.58 284.129 240.395 286.066 239.528 287.834C238.659 289.602 237.124 288.717 237.124 288.717C237.124 288.717 238.992 290.161 238.732 292.235C238.471 294.309 236.617 293.892 236.617 293.892C236.617 293.892 237.255 294.718 237.307 296.891C237.36 299.065 235.264 298.513 235.264 298.513C235.264 298.513 236.455 299.412 236.391 301.401C236.328 303.391 233.756 303.086 233.756 303.086C233.756 303.086 236.162 304.984 235.589 306.789C235.017 308.594 232.504 307.569 232.504 307.569C232.504 307.569 233.103 312.299 231.866 313.155C230.63 314.012 229.648 313.53 229.648 313.53C229.648 313.53 229.93 315.323 229.274 317.213C228.616 319.105 226.907 318.052 226.907 318.052C226.907 318.052 227.057 323.661 225.645 324.178C224.232 324.695 223.589 324.036 223.589 324.036C223.589 324.036 223.8 329.097 222.116 329.755C220.432 330.412 219.801 329.36 219.801 329.36C219.801 329.36 220.513 334.808 218.481 335.129C216.45 335.448 215.565 333.408 215.565 333.408C215.565 333.408 216.014 338.432 213.257 339.43C210.499 340.428 209.988 339.357 209.988 339.357C209.988 339.357 210.919 343.399 208.663 343.534C206.407 343.669 205.878 342.651 205.878 342.651C205.878 342.651 206.976 346.347 204.701 346.363C202.426 346.378 201.676 344.269 201.676 344.269C201.676 344.269 202.525 347.318 200.682 346.507C198.84 345.695 196.962 341.317 196.962 341.317C196.962 341.317 233.125 285.491 232.51 276.697C231.895 267.904 234.011 262.445 234.011 262.445Z" fill="#272322"/>
<path d="M184.896 284.364C184.896 284.364 195.607 295.363 197.036 311.786C198.464 328.209 191.218 334.78 197.171 341.777C203.124 348.773 223.147 320.971 228.671 301.585C234.194 282.199 235.365 262.239 235.365 262.239L235.476 262.266L199.609 253.346L184.896 284.364Z" fill="white"/>
<path d="M184.896 284.364C184.896 284.364 195.607 295.363 197.036 311.786C198.464 328.209 191.218 334.78 197.171 341.777C203.124 348.773 223.147 320.971 228.671 301.585C234.194 282.199 235.365 262.239 235.365 262.239L235.476 262.266L199.609 253.346L184.896 284.364Z" stroke="#272322" stroke-width="0.870667" stroke-miterlimit="10" stroke-linecap="round" stroke-linejoin="round"/>
<path d="M268.577 220.799C268.577 220.799 257.957 214.955 230.855 233.376" stroke="#272322" stroke-width="0.870667" stroke-miterlimit="10" stroke-linecap="round" stroke-linejoin="round"/>
<path d="M169.026 331.934C169.026 331.934 178.914 350.628 181.185 359.5C183.458 368.371 184.432 385.601 183.945 395.095C183.458 404.588 182.322 416.84 184.512 419.843C186.704 422.845 188.327 423.603 188.327 423.603C188.327 423.603 180.212 423.9 176.966 421.06C173.721 418.22 178.676 416.435 178.676 416.435C178.676 416.435 172.504 411.972 175.668 410.025C175.668 410.025 172.098 406.535 174.126 403.696C176.155 400.855 177.859 399.963 177.859 399.963C177.859 399.963 173.234 396.068 174.938 393.958C176.642 391.849 179.157 392.174 179.157 392.174C179.157 392.174 173.153 387.223 175.343 385.032C177.534 382.841 179.077 382.355 179.077 382.355C179.077 382.355 174.37 381.468 174.695 377.773C175.019 374.078 176.804 373.74 176.804 373.74C176.804 373.74 171.692 370.508 172.747 367.749C173.802 364.99 174.695 363.367 174.695 363.367C174.695 363.367 169.177 361.014 169.826 358.499C170.475 355.983 172.26 354.604 172.26 354.604C172.26 354.604 167.148 352.819 167.392 348.761C167.635 344.704 168.69 344.461 168.69 344.461C168.69 344.461 163.74 343.163 163.74 340.648C163.74 338.132 166.823 336.753 166.823 336.753C166.823 336.753 162.767 337.239 162.36 336.185C161.955 335.13 169.026 331.934 169.026 331.934Z" fill="#272322"/>
<path d="M273.153 286.593C273.153 286.593 267.855 285.474 268.576 280.999C269.299 276.523 267.558 273.539 269.175 271.053C270.791 268.565 272.843 267.073 274.987 268.815C277.131 270.555 278.251 271.177 280.737 273.166C283.224 275.155 284.462 275.213 283.776 275.995C283.09 276.778 279.463 278.605 277.691 276.554C275.919 274.502 277.225 272.544 275.453 273.383C273.682 274.222 272.096 274.222 273.868 276.927C275.64 279.631 274.801 279.538 274.987 281.496C275.174 283.454 276.602 284.059 276.602 284.059L273.628 287.347L273.153 286.593Z" fill="#272322"/>
<path d="M276.213 251.284C276.213 251.284 276.883 250.165 280.489 250.538C284.094 250.911 286.208 249.916 286.456 247.181C286.705 244.446 284.467 242.332 285.586 239.597C286.705 236.862 289.814 237.431 284.964 235.406C280.116 233.38 282.104 233.504 277.629 234.251C273.154 234.997 270.791 233.255 270.542 236.612C270.293 239.97 267.482 238.478 268.577 243.824C269.672 249.169 270.417 249.668 272.905 249.294C275.391 248.922 276.66 247.43 276.213 244.446C275.764 241.462 275.143 238.354 277.132 239.099C279.121 239.845 282.478 240.715 280.861 243.078C279.245 245.441 280.531 246.077 277.257 247.554C273.981 249.031 275.515 253.295 277.257 253.346C278.997 253.398 276.213 251.284 276.213 251.284Z" fill="#272322"/>
<path d="M236.476 196.268C236.476 196.268 242.888 201.276 243.039 204.227C243.189 207.178 240.392 206.712 244.216 206.525C248.039 206.338 247.011 203.261 249.716 202.702C252.421 202.142 257.922 204.566 257.55 200.743C257.177 196.921 251.955 195.615 253.727 192.817C255.499 190.02 256.24 189.119 255.591 188.248C254.944 187.378 251.302 187.503 249.25 190.487C247.199 193.47 246.005 195.522 247.022 196.827C248.039 198.133 247.572 199.718 245.801 198.785C244.029 197.853 244.774 195.429 242.537 194.589C240.299 193.75 234.704 193.284 236.476 196.268Z" fill="#272322"/>
<path d="M276.479 193.004C276.479 193.004 271.816 195.242 273.495 197.947C275.173 200.651 274.878 204.38 277.963 204.754C281.048 205.126 279.37 202.329 282.167 200.837C284.964 199.345 285.617 198.412 285.338 196.548C285.058 194.682 285.338 195.708 282.447 195.428C279.556 195.149 278.065 194.589 278.717 193.004C279.37 191.419 279.261 189.18 277.963 189.46C276.666 189.74 276.479 193.004 276.479 193.004Z" fill="#272322"/>
<path d="M47.6183 199.811C47.6183 199.811 49.8564 201.427 52.2186 204.909C54.5809 208.39 51.7212 208.763 49.9185 210.006C48.1158 211.25 47.7425 214.731 43.8887 214.358C40.0342 213.984 38.2935 212.493 39.2884 209.508C40.2833 206.524 40.3527 205.101 40.3527 205.101L43.2131 202.373C43.2131 202.373 44.8054 204.194 44.4322 205.267C44.0589 206.339 44.6659 208.437 45.6914 207.738C46.717 207.038 46.3437 205.779 45.6447 204.381C44.9449 202.982 44.6812 201.097 45.1436 200.722C45.606 200.346 47.2765 199.05 47.2765 199.05L47.6183 199.811Z" fill="#272322"/>
<path d="M60.6106 235.406C60.5069 234.745 58.7458 232.634 58.87 230.024C58.9942 227.412 59.1804 225.796 60.9218 225.174C62.6624 224.553 63.5945 224.491 65.9567 223.931C68.3189 223.372 69.5621 223.931 70.6191 222.999C71.676 222.066 74.9711 221.941 74.8461 223.745C74.722 225.548 74.7841 226.542 74.2874 228.469C73.7892 230.396 76.5875 233.256 73.4788 232.759C70.3707 232.261 70.3707 232.012 69.438 230.459C68.5059 228.905 66.7653 227.972 65.3351 229.464C63.9056 230.956 68.1327 233.753 65.1488 234.872C62.165 235.991 60.859 236.996 60.6106 235.406Z" fill="#272322"/>
<path d="M74.0387 234.624C74.1906 234.731 76.398 236.427 74.97 237.234C73.5412 238.043 73.1059 238.726 71.9248 240.218C70.7437 241.711 68.071 242.394 67.884 240.529C67.6977 238.664 66.6408 237.359 69.003 236.923C71.3653 236.489 72.3601 233.443 74.0387 234.624Z" fill="#272322"/>
<path d="M131.466 219.919C131.466 219.919 120.6 223.644 122.465 226.647C124.329 229.65 125.325 227.786 127.811 231.515C130.298 235.245 135.022 235.699 136.39 234.354C137.757 233.007 136.39 229.401 138.255 228.034C140.12 226.666 143.476 224.677 140.368 223.931C137.26 223.185 134.898 224.553 133.779 225.921C132.66 227.288 129.552 228.407 130.05 226.045C130.546 223.682 136.141 225.209 135.271 222.333C134.401 219.455 131.466 219.919 131.466 219.919Z" fill="#272322"/>
<path d="M106.799 197.449C106.799 197.449 106.762 197.685 106.752 198.058C106.717 199.481 107.091 202.893 111.524 202.794C117.119 202.67 118.238 198.786 120.848 199.049C123.46 199.314 127.065 197.449 126.07 194.963C125.076 192.475 124.397 190.487 122.249 189.367C120.103 188.248 115.627 186.88 116.497 189.367C117.368 191.854 116 194.838 113.388 194.092C110.778 193.346 108.789 190.362 107.545 192.227L106.799 197.449Z" fill="#272322"/>
<path d="M80.6899 190.487C80.6899 190.487 80.9215 190.494 81.3108 190.513C83.234 190.613 89.0001 191.028 89.5173 192.476C90.1389 194.216 92.8744 198.692 93.6209 201.054C94.3659 203.417 93.496 204.038 91.507 203.417C89.5173 202.795 89.8905 199.657 87.9015 199.05C85.9118 198.444 85.5393 200.184 82.5547 198.195C79.5709 196.206 78.0793 193.968 78.9493 193.221" fill="#272322"/>
<path d="M164.861 264.338C164.861 264.338 157.788 258.371 163.47 256.692C169.151 255.013 169.524 251.657 170.83 250.724C172.135 249.792 173.627 249.978 176.424 252.216C179.222 254.454 180.527 253.149 183.325 254.827C186.121 256.505 188.92 259.117 183.325 258.557C177.729 257.998 173.814 255.2 174.372 258.743C174.933 262.287 179.411 265.644 173.908 265.644C168.405 265.644 164.861 264.338 164.861 264.338Z" fill="#272322"/>
<path d="M182.952 262.431C182.952 262.431 185.749 266.274 181.086 265.644C176.424 265.014 176.051 268.053 177.916 270.112C179.781 272.172 182.952 268.985 185.749 268.06C188.546 267.136 190.039 264.898 189.665 263.219C189.293 261.541 182.156 260.045 182.952 262.431Z" fill="#272322"/>
<path d="M179.45 233.375C179.45 233.375 172.463 230.368 176.868 235.044C181.273 239.721 181.06 237.483 184.896 240.84C188.733 244.197 190.039 243.461 191.903 243.55C193.769 243.637 194.324 240.891 194.324 240.891L181.167 231.753L179.45 233.375Z" fill="#272322"/>
<path d="M216.987 250.196C216.987 250.196 220.438 248.86 223.328 250.631C226.218 252.402 228.457 251.003 229.855 250.724C231.253 250.445 232.093 247.834 236.57 247.927C241.045 248.02 244.401 245.139 243.469 243.549C242.537 241.959 242.07 239.324 240.485 237.658C238.9 235.991 236.755 233.197 236.662 237.671C236.57 242.145 238.124 244.787 236.135 244.585C234.144 244.383 233.999 243.275 230.855 243.549C227.711 243.824 224.294 246.319 222.319 244.792C220.344 243.264 215.483 247.518 215.495 248.299C215.507 249.082 216.987 250.196 216.987 250.196Z" fill="#272322"/>
<path d="M249.716 225.827C249.716 225.827 254.938 226.591 258.948 227.468C262.958 228.345 264.73 230.593 263.238 231.753C261.746 232.914 261.56 234.582 259.042 233.375C256.523 232.168 258.948 230.956 256.152 230.396C253.353 229.836 253.26 228.064 251.022 230.303C248.784 232.541 247.758 236.734 245.614 233.752C243.469 230.769 249.716 225.827 249.716 225.827Z" fill="#272322"/>
</svg>
